<svg id="Capa_1" data-name="Capa 1" xmlns="http://www.w3.org/2000/svg" viewBox="0 0 80 80"><defs><style>.cls-1{fill:#004b97;}.cls-2{fill:#fff;}</style></defs><title>OFERTAS Y SUCURSALES</title><circle class="cls-1" cx="40" cy="40" r="40"/><path class="cls-2" d="M58.64,29.47,46.17,17a.86.86,0,0,0-.61-.25H27.3a6.2,6.2,0,0,0-6.19,6.19V57.07a6.2,6.2,0,0,0,6.19,6.19H52.7a6.2,6.2,0,0,0,6.19-6.19v-27A.86.86,0,0,0,58.64,29.47ZM46.42,19.69l9.52,9.52H50.89a4.47,4.47,0,0,1-4.47-4.46ZM57.17,57.06a4.47,4.47,0,0,1-4.47,4.46H27.3a4.47,4.47,0,0,1-4.47-4.46V22.93a4.47,4.47,0,0,1,4.47-4.46H44.7v6.28a6.2,6.2,0,0,0,6.19,6.19h6.28ZM34.26,33.2V29.9h3.3a.86.86,0,0,0,0-1.73h-3.3v-3.3a.86.86,0,1,0-1.73,0v3.3h-3.3a.86.86,0,0,0,0,1.73h3.3V33.2a.86.86,0,0,0,1.73,0ZM50.77,46.48H34.35a.86.86,0,1,0,0,1.73H50.77a.86.86,0,1,0,0-1.73ZM34.35,39.86a.86.86,0,1,0,0,1.73H50.77a.86.86,0,1,0,0-1.73ZM50.77,53.09H34.35a.86.86,0,1,0,0,1.73H50.77a.86.86,0,1,0,0-1.73ZM29.23,39.57a1.15,1.15,0,1,0,1.15,1.15A1.15,1.15,0,0,0,29.23,39.57Zm0,6.62a1.15,1.15,0,1,0,1.15,1.15A1.15,1.15,0,0,0,29.23,46.19Zm0,6.62A1.15,1.15,0,1,0,30.39,54,1.15,1.15,0,0,0,29.23,52.81Z"/></svg>