<svg id="Capa_1" data-name="Capa 1" xmlns="http://www.w3.org/2000/svg" viewBox="0 0 80 80"><defs><style>.cls-1{fill:#004b97;}.cls-2{fill:#fff;}</style></defs><title>OFERTAS Y SUCURSALES</title><circle class="cls-1" cx="40" cy="40" r="40"/><path class="cls-2" d="M56.1,52a3.66,3.66,0,0,0-4.5-2.28l-9.88,2.4a3.72,3.72,0,0,0-1.9-2.42l-.07,0c-3.06-1.57-8.51-4.21-10.74-4.21a25.15,25.15,0,0,0-4.55.67,30.66,30.66,0,0,1-5.84.82.86.86,0,0,0,0,1.73,32.37,32.37,0,0,0,6.19-.86A24.23,24.23,0,0,1,29,47.2c1.3,0,5.2,1.58,9.95,4l.07,0A2,2,0,0,1,40,53.77c-.37,1-1.4,1.43-2.75,1.11-4.73-1.09-6.81-1.77-6.83-1.78a.86.86,0,1,0-.54,1.64c.09,0,2.16.71,7,1.82a5.52,5.52,0,0,0,1.24.15,3.61,3.61,0,0,0,3.52-2.35,3.86,3.86,0,0,0,.13-.46L52,51.42a2,2,0,0,1,2.48,1.15A2.27,2.27,0,0,1,53,55.33l-.29.14c-10.28,4.94-11.86,5.7-15.88,5.7a29.46,29.46,0,0,1-6-1.33c-3.37-1-7.19-2-10.25-2H18.36a.86.86,0,0,0,0,1.73h2.28c2.82,0,6.52,1,9.78,2a29.13,29.13,0,0,0,6.43,1.4c4.42,0,6.29-.9,16.63-5.87l.29-.14A4,4,0,0,0,56.1,52ZM28.51,35.43H36v7.45a.86.86,0,0,0,.86.86h8.3a.86.86,0,0,0,.86-.86V35.43h7.44a.86.86,0,0,0,.86-.86v-8.3a.86.86,0,0,0-.86-.86H46V18a.86.86,0,0,0-.86-.86h-8.3A.86.86,0,0,0,36,18v7.44H28.51a.86.86,0,0,0-.86.86v8.3A.86.86,0,0,0,28.51,35.43Zm.86-8.3h7.44a.86.86,0,0,0,.86-.86V18.83h6.58v7.44a.86.86,0,0,0,.86.86h7.44V33.7H45.12a.86.86,0,0,0-.86.86V42H37.68V34.57a.86.86,0,0,0-.86-.86H29.37Z"/></svg>