<svg id="Capa_1" data-name="Capa 1" xmlns="http://www.w3.org/2000/svg" viewBox="0 0 80 80"><defs><style>.cls-1{fill:#004b97;}.cls-2{fill:#fff;}</style></defs><title>OFERTAS Y SUCURSALES</title><circle class="cls-1" cx="40" cy="40" r="40"/><path class="cls-2" d="M61.91,40.68c2.39-1.2,3.71-3.61,3.71-6.78,0-7.72-10.77-13.32-25.63-13.32S14.38,26.18,14.38,33.9c0,3.17,1.32,5.58,3.71,6.78a.87.87,0,0,0,.39.09l.2,0L24,39.48a9.31,9.31,0,0,1-2.24,3.74l0,.05A12.6,12.6,0,0,0,18,52.36v6.2a.86.86,0,0,0,.86.86H61.14a.86.86,0,0,0,.86-.86v-6.2a12.6,12.6,0,0,0-3.67-9.09l0-.05A9.31,9.31,0,0,1,56,39.48l5.28,1.27A.85.85,0,0,0,61.91,40.68ZM57,44.34l0,.05a10.84,10.84,0,0,1,3.25,8V57.7H19.72V52.36a10.84,10.84,0,0,1,3.25-8l0-.05c1.73-2,2.57-3.6,2.76-5.3l3.44-.83a.86.86,0,0,0,.6-.52,8.69,8.69,0,0,0-.42-6.91,22.2,22.2,0,0,1,4.73-1.51l.78,2.87a.86.86,0,0,0,.83.63h8.61a.86.86,0,0,0,.83-.63L46,29.29a22.33,22.33,0,0,1,4.64,1.49,8.69,8.69,0,0,0-.42,6.91.86.86,0,0,0,.6.52l3.44.83C54.41,40.73,55.24,42.32,57,44.34ZM35.83,29a29.69,29.69,0,0,1,8.43,0L43.7,31H36.4Zm15.81,7.68a7,7,0,0,1,.87-5.7.86.86,0,0,0-.24-1.25C52.08,29.59,47.63,27,40,27S27.92,29.59,27.73,29.7A.86.86,0,0,0,27.49,31a7,7,0,0,1,.87,5.69L18.59,39c-1.61-.94-2.5-2.74-2.5-5.1,0-6.61,10.27-11.6,23.9-11.6s23.9,5,23.9,11.6c0,2.36-.88,4.16-2.5,5.1ZM40,35.64a9.15,9.15,0,1,0,9.15,9.15A9.16,9.16,0,0,0,40,35.64Zm0,16.58a7.43,7.43,0,1,1,7.43-7.43A7.44,7.44,0,0,1,40,52.22Zm0-9.16a1.73,1.73,0,1,0,1.73,1.73A1.73,1.73,0,0,0,40,43.06Zm0-2.17a1.08,1.08,0,1,0-1.08-1.08A1.08,1.08,0,0,0,40,40.89Zm0,7.8a1.08,1.08,0,1,0,1.08,1.08A1.08,1.08,0,0,0,40,48.69Zm3.9-3.9A1.08,1.08,0,1,0,45,43.7,1.08,1.08,0,0,0,43.9,44.79Zm-7.8,0A1.08,1.08,0,1,0,35,45.87,1.08,1.08,0,0,0,36.1,44.79Zm7.48-2.44a1.08,1.08,0,1,0-1.08-1.08A1.08,1.08,0,0,0,43.58,42.35Zm-7,4.88a1.08,1.08,0,1,0,1.08,1.08A1.08,1.08,0,0,0,36.53,47.23Zm7.05,0a1.08,1.08,0,1,0,1.08,1.08A1.08,1.08,0,0,0,43.58,47.23Zm-7.05-7a1.08,1.08,0,1,0,1.08,1.08A1.08,1.08,0,0,0,36.53,40.18Z"/></svg>