<svg id="Capa_1" data-name="Capa 1" xmlns="http://www.w3.org/2000/svg" viewBox="0 0 80 80"><defs><style>.cls-1{fill:#004b97;}.cls-2{fill:#fff;}</style></defs><title>OFERTAS Y SUCURSALES</title><circle class="cls-1" cx="40" cy="40" r="40"/><path class="cls-2" d="M51.8,15.87H28.2a5.31,5.31,0,0,0-5.31,5.31V58.82a5.31,5.31,0,0,0,5.31,5.31H51.8a5.32,5.32,0,0,0,5.31-5.31V21.18A5.32,5.32,0,0,0,51.8,15.87Zm3.69,42.95a3.7,3.7,0,0,1-3.69,3.69H28.2a3.7,3.7,0,0,1-3.69-3.69V37.61h31V58.82ZM44.35,32.16A4.51,4.51,0,0,1,48.8,36H31.2a4.51,4.51,0,0,1,4.45-3.83Zm-8.06-6.85a3.71,3.71,0,0,1,7.41,0c0,2.15-1.8,4.92-3.71,4.92S36.29,27.46,36.29,25.31ZM55.49,36H50.44a6.13,6.13,0,0,0-6.09-5.45H43a7.56,7.56,0,0,0,2.33-5.24,5.33,5.33,0,0,0-10.65,0A7.56,7.56,0,0,0,37,30.55H35.65A6.13,6.13,0,0,0,29.56,36h-5V21.18a3.7,3.7,0,0,1,3.69-3.69H51.8a3.7,3.7,0,0,1,3.69,3.69V36Z"/></svg>