<svg id="Capa_1" data-name="Capa 1" xmlns="http://www.w3.org/2000/svg" viewBox="0 0 250 70"><defs><style>.cls-1{fill:#fff;}.cls-2{fill:#a8c145;}.cls-3{fill:#004b97;}.cls-4{fill:none;}</style></defs><title>250x70logo</title><path class="cls-1" d="M129.07.42C142.93,1.77,151,12.1,147,23.5S128.6,43,114.74,41.68,92.85,30,96.81,18.61,115.21-.93,129.07.42Z"/><path class="cls-2" d="M125.33,2.4c12.27,0,20.19,8.4,17.7,18.75s-14.46,18.75-26.74,18.75S96.1,31.52,98.6,21.16,113.06,2.4,125.33,2.4Z"/><path class="cls-3" d="M127.51,2.84c12.27,0,20.2,8.4,17.7,18.76s-14.46,18.75-26.73,18.75-20.19-8.4-17.7-18.75S115.24,2.84,127.51,2.84Z"/><path class="cls-2" d="M122,32.26l1.48-6.9c.39-1.81.92-4.11,1.55-6.52H125c-1.06,2.16-2.26,4.47-3.3,6.3L117.77,32H115l-.14-6.77c0-1.84,0-4.14.06-6.38h-.05c-.62,2.21-1.28,4.74-1.83,6.52l-2.12,6.9h-3.27l5.31-16.72h4.79l.09,6.35c0,1.56,0,3.47-.06,5.33h.1a58.38,58.38,0,0,1,2.61-5.33L124,15.54h4.83l-3.38,16.72Z"/><path class="cls-1" d="M128.68,39l2.76-14.64h-1.66l.56-2.87H132l.13-.68a6.92,6.92,0,0,1,2.16-4.19,5.57,5.57,0,0,1,3.66-1.24,5.34,5.34,0,0,1,2,.32l-.66,3a3,3,0,0,0-1.24-.21c-1.22,0-2,1-2.22,2.34l-.13.63h2.56l-.56,2.87h-2.53l-2.42,12.81-.63.29Z"/><path class="cls-1" d="M122.38,8.61A8.49,8.49,0,0,0,124,7.47c.38-.44.68-.68,1.08-.31a5.12,5.12,0,0,0,3.5,1.49s.8.1.12.34a4.71,4.71,0,0,1-2.41-.23s.11.37,1.57.54c0,0,.87,0,0,.2A3.65,3.65,0,0,1,125.45,9s.24.44,1.33.78c0,0,.48.24-.28.21a3.28,3.28,0,0,1-2-.78,1.55,1.55,0,0,0,.72.72c.57.31,0,.24-.34.21A2.78,2.78,0,0,1,123,9.25s-.36-.37-.65-.34S122.38,8.61,122.38,8.61Z"/><path class="cls-1" d="M122,8.61a4.61,4.61,0,0,1-1.16-1.12c-.2-.44-.39-.68-1-.3a8,8,0,0,1-4.13,1.51s-.84.11-.27.34A5.07,5.07,0,0,0,118,8.79s-.27.37-1.8.55c0,0-.87,0-.09.21A4.66,4.66,0,0,0,118.78,9a3.88,3.88,0,0,1-1.66.79s-.58.24.2.2a4.92,4.92,0,0,0,2.29-.79,2.92,2.92,0,0,1-1,.72c-.69.31,0,.24.24.2a4.12,4.12,0,0,0,2.31-.86s.51-.37.8-.34S122,8.61,122,8.61Z"/><polygon class="cls-1" points="122.13 7.28 119.36 21.38 119.55 21.38 122.85 7.31 122.13 7.28"/><path class="cls-1" d="M120.42,11.27s.69-.27.64-.75-1.07-.2-1.35,0-1.4.92-.93,1.68,1.29.75,1.83.95,1.41.44,1.19,1.23-1.32,1.23-1.67,1.51-1.3.85-1.48,1.51c-.23.85.68,1.13,1.6,1.56s-.18,1.54-.51,1.51c0,0-.31.31.1.2s1.8-1,.95-1.74-1.58-1-1.45-1.6c.09-.41,1-1.13,1.91-1.51a2.28,2.28,0,0,0,1.43-1.51c.1-.48-.19-1.07-1-1.36s-2-.47-1.93-.91S120.05,11.41,120.42,11.27Z"/><path class="cls-1" d="M122.84,11.27s-.57-.27-.32-.75,1.15-.21,1.35,0,1,.92.23,1.67a4.53,4.53,0,0,1-2.23,1c-.62.21-1.59.45-1.71,1.23s.81,1.23,1,1.5.94.85.84,1.5c-.13.85-1.16,1.13-2.26,1.57a.79.79,0,0,0-.12,1.51s.18.31-.19.2-1.39-1-.21-1.74,2-1,2.12-1.61c.09-.41-.54-1.13-1.28-1.5a1.34,1.34,0,0,1-.79-1.5,2.19,2.19,0,0,1,1.59-1.37c.88-.28,2.18-.48,2.32-.93S123.15,11.41,122.84,11.27Z"/><path class="cls-1" d="M122.48,7.46a.59.59,0,0,1-.64-.57.7.7,0,0,1,.75-.67.6.6,0,0,1,.66.58.68.68,0,0,1-.76.66Z"/><path class="cls-1" d="M154.77,63.35A1,1,0,0,0,154,63h-2.25a1,1,0,0,0-1,.81l0,.21a2.55,2.55,0,0,0-.48-.47,2.65,2.65,0,0,0-1-.45,5.78,5.78,0,0,0-1.21-.1H147a1,1,0,0,0-1,.81l-.87,4.68a1,1,0,0,0,1,1.17h1.14a5.75,5.75,0,0,0,1.19-.1,3.93,3.93,0,0,0,1-.37,3.68,3.68,0,0,0,.5-.33,1,1,0,0,0,1,.81h2.5a1,1,0,0,0,1-.81l.11-.58a1,1,0,0,0,0-.18,1,1,0,0,0-.23-.63.83.83,0,0,0-.18-.16,1,1,0,0,0,.4-.62l.11-.58a1,1,0,0,0-.15-.72,1,1,0,0,0,.43-.64l.11-.58a1,1,0,0,0,0-.18A1,1,0,0,0,154.77,63.35Z"/><path class="cls-1" d="M192.79,63.78a2.66,2.66,0,0,0-2-.87,3.27,3.27,0,0,0-1.62.42,1,1,0,0,0-.74-.34H185a1,1,0,0,0-.31.06,1,1,0,0,0-.3-.06h-.72a1,1,0,0,0-1,.82l-.1.54-.45-.84a1,1,0,0,0-.87-.52h-.61a1,1,0,0,1-1.15,0h-2.25A1,1,0,0,1,176,63h-.75a1,1,0,0,0-.91.6,1,1,0,0,0-.91-.6h-.84a1,1,0,0,0-.67.27,3.11,3.11,0,0,0-1.43-.35,3.56,3.56,0,0,0-2.28.78,1,1,0,0,0-.21-.23,2.68,2.68,0,0,0-1.65-.56,2.6,2.6,0,0,0-1.45.42,1,1,0,0,0-.74-.34h-2.25a1,1,0,0,0-1,.81l0,.21a2.54,2.54,0,0,0-.48-.47,2.65,2.65,0,0,0-1-.45,5.78,5.78,0,0,0-1.21-.1h-1.1a1,1,0,0,0-1,.81l-.87,4.68a1,1,0,0,0,1,1.17h1.14a5.75,5.75,0,0,0,1.19-.1,3.94,3.94,0,0,0,1-.37,3.62,3.62,0,0,0,.5-.33,1,1,0,0,0,.21.45,1,1,0,0,0,.76.36h2.5a1,1,0,0,0,.59-.2,2.86,2.86,0,0,0,1.26.28,2.67,2.67,0,0,0,1.78-.61,2.22,2.22,0,0,0,.39-.45,3,3,0,0,0,.28.29,3.12,3.12,0,0,0,2.14.78,4,4,0,0,0,1.54-.31,1,1,0,0,0,.3-.21,2.57,2.57,0,0,0,1.63.52,2.86,2.86,0,0,0,2-.76,1,1,0,0,0,.18.32,1,1,0,0,0,.76.36h2.5a.95.95,0,0,1,.89,0h.73a1,1,0,0,0,1-.82l.09-.53.45.84a1,1,0,0,0,.87.51h.61a1,1,0,0,0,1-.73,1,1,0,0,0,.19.37,1,1,0,0,0,.76.36h.84a1,1,0,0,0,1-.81l.19-1a3,3,0,0,0,.53,1,2.7,2.7,0,0,0,2.17,1,3.17,3.17,0,0,0,2.43-1.11,4,4,0,0,0,1-2.75A3,3,0,0,0,192.79,63.78Z"/><path class="cls-4" d="M159.24,67a2.11,2.11,0,0,0,.3-1.12,1.27,1.27,0,0,0-.49-1.13,1.63,1.63,0,0,0-.9-.19h-.31L157.21,68h.27A2,2,0,0,0,158,68a2.44,2.44,0,0,0,.39-.17A2,2,0,0,0,159.24,67Z"/><path class="cls-4" d="M149.11,67a2.11,2.11,0,0,0,.3-1.12,1.27,1.27,0,0,0-.49-1.13,1.63,1.63,0,0,0-.9-.19h-.31L147.09,68h.26a2,2,0,0,0,.55-.07,2.46,2.46,0,0,0,.39-.17A2,2,0,0,0,149.11,67Z"/><path class="cls-4" d="M191.36,64.93a.85.85,0,0,0-.72-.33,1.28,1.28,0,0,0-1.06.57,2.36,2.36,0,0,0-.43,1.44,1.76,1.76,0,0,0,.28,1.06.88.88,0,0,0,.76.37,1.2,1.2,0,0,0,1.05-.66,2.91,2.91,0,0,0,.37-1.5A1.52,1.52,0,0,0,191.36,64.93Z"/><path class="cls-3" d="M149.69,64.3a1.69,1.69,0,0,0-.64-.28,5,5,0,0,0-1-.08h-1.14v0L146,68.65v0h1.19a4.93,4.93,0,0,0,1-.08,3,3,0,0,0,.77-.28,2.63,2.63,0,0,0,1-1,2.82,2.82,0,0,0,.37-1.44A1.86,1.86,0,0,0,149.69,64.3ZM147.35,68h-.26l.63-3.44H148a1.63,1.63,0,0,1,.9.19,1.27,1.27,0,0,1,.49,1.13,2.11,2.11,0,0,1-.3,1.12,2,2,0,0,1-.82.76,2.46,2.46,0,0,1-.39.17A2,2,0,0,1,147.35,68Z"/><polygon class="cls-3" points="151.76 63.94 151.72 63.94 151.72 63.97 150.85 68.65 150.84 68.7 150.89 68.7 153.39 68.7 153.42 68.7 153.43 68.66 153.53 68.09 153.54 68.04 153.49 68.04 151.88 68.04 152.17 66.53 153.51 66.53 153.54 66.53 153.55 66.5 153.65 65.92 153.66 65.88 153.61 65.88 152.29 65.88 152.53 64.6 153.9 64.6 153.94 64.6 153.94 64.56 154.05 63.99 154.06 63.94 154.01 63.94 151.76 63.94"/><path class="cls-3" d="M159.82,64.3a1.7,1.7,0,0,0-.64-.28,5,5,0,0,0-1-.08H157v0l-.87,4.68v0h1.19a4.92,4.92,0,0,0,1-.08,3,3,0,0,0,.77-.28,2.63,2.63,0,0,0,1-1,2.83,2.83,0,0,0,.37-1.44A1.86,1.86,0,0,0,159.82,64.3ZM157.48,68h-.27l.63-3.44h.31a1.63,1.63,0,0,1,.9.19,1.27,1.27,0,0,1,.49,1.13,2.11,2.11,0,0,1-.3,1.12,2,2,0,0,1-.82.76A2.44,2.44,0,0,1,158,68,2,2,0,0,1,157.48,68Z"/><polygon class="cls-3" points="164.18 63.94 164.13 63.94 161.88 63.94 161.85 63.94 161.84 63.97 160.97 68.65 160.96 68.7 161.01 68.7 163.51 68.7 163.55 68.7 163.55 68.66 163.66 68.09 163.67 68.04 163.62 68.04 162.01 68.04 162.3 66.53 163.63 66.53 163.67 66.53 163.67 66.5 163.78 65.92 163.79 65.88 163.74 65.88 162.42 65.88 162.65 64.6 164.03 64.6 164.06 64.6 164.07 64.56 164.17 63.99 164.18 63.94"/><path class="cls-3" d="M166.32,63.86a1.64,1.64,0,0,0-1.08.35,1.12,1.12,0,0,0-.43.9,1.76,1.76,0,0,0,.46,1l.45.57a1.28,1.28,0,0,1,.29.72.62.62,0,0,1-.2.48.73.73,0,0,1-.51.19,1.35,1.35,0,0,1-.81-.35l0,0,0,0-.34.5,0,0,0,0a1.8,1.8,0,0,0,1.26.46,1.75,1.75,0,0,0,1.17-.38,1.27,1.27,0,0,0,.46-1,1.67,1.67,0,0,0-.46-1.07l-.38-.48a1.59,1.59,0,0,1-.36-.74.53.53,0,0,1,.17-.41.66.66,0,0,1,.46-.16,1.08,1.08,0,0,1,.58.21l0,0,0,0,.36-.44,0,0,0,0A1.75,1.75,0,0,0,166.32,63.86Z"/><path class="cls-3" d="M170.46,63.86a2.64,2.64,0,0,0-1.93.78,2.6,2.6,0,0,0-.79,1.91,2.15,2.15,0,0,0,.7,1.69,2.21,2.21,0,0,0,1.51.54,3,3,0,0,0,1.17-.24h0v0l-.18-.57v0h0a2.31,2.31,0,0,1-.78.15,1.32,1.32,0,0,1-1-.42,1.61,1.61,0,0,1-.39-1.13,1.92,1.92,0,0,1,.49-1.35,1.67,1.67,0,0,1,1.28-.53,2,2,0,0,1,.8.18h0l0,0,.34-.49,0,0,0,0A2.16,2.16,0,0,0,170.46,63.86Z"/><path class="cls-3" d="M175.22,63.94h0v0l-.47,2.55a3.69,3.69,0,0,1-.28.95.92.92,0,0,1-.89.57.65.65,0,0,1-.49-.18.68.68,0,0,1-.18-.5,5.6,5.6,0,0,1,.11-.87l.46-2.49v0h-.93v0l-.45,2.43a6.91,6.91,0,0,0-.14,1.1,1.17,1.17,0,0,0,.4.94,1.63,1.63,0,0,0,1.09.34,1.9,1.9,0,0,0,1.47-.62,2,2,0,0,0,.38-.6,5.53,5.53,0,0,0,.25-1L176,64v0h-.8Z"/><polygon class="cls-3" points="177.23 63.94 177.2 63.94 177.19 63.97 176.32 68.65 176.32 68.7 176.37 68.7 178.87 68.7 178.9 68.7 178.91 68.66 179.01 68.09 179.02 68.04 178.97 68.04 177.36 68.04 177.65 66.53 178.99 66.53 179.02 66.53 179.03 66.5 179.13 65.92 179.14 65.88 179.09 65.88 177.77 65.88 178 64.6 179.38 64.6 179.41 64.6 179.42 64.56 179.53 63.99 179.54 63.94 179.49 63.94 177.23 63.94"/><path class="cls-3" d="M183.64,63.94h0v0l-.6,3.31c-.34-.72-.91-1.83-1.72-3.33v0h-.67v0l-.88,4.68v0h.81v0l.59-3.31c.4.86,1,2,1.72,3.33v0h.67v0L184.4,64v0h-.77Z"/><polygon class="cls-3" points="188.3 64.6 188.34 64.6 188.34 64.56 188.44 63.99 188.45 63.94 188.4 63.94 184.97 63.94 184.94 63.94 184.93 63.97 184.82 64.55 184.82 64.6 184.87 64.6 186.1 64.6 185.35 68.65 185.34 68.7 185.39 68.7 186.24 68.7 186.27 68.7 186.28 68.66 187.03 64.6 188.3 64.6"/><path class="cls-3" d="M192.08,64.42a1.72,1.72,0,0,0-1.32-.56,2.32,2.32,0,0,0-1.6.61,2.93,2.93,0,0,0-.72,1,3,3,0,0,0-.27,1.22,2.22,2.22,0,0,0,.49,1.46,1.76,1.76,0,0,0,1.43.62,2.25,2.25,0,0,0,1.72-.8,3,3,0,0,0,.77-2.11A2.1,2.1,0,0,0,192.08,64.42ZM190.19,68a.88.88,0,0,1-.76-.37,1.76,1.76,0,0,1-.28-1.06,2.36,2.36,0,0,1,.43-1.44,1.28,1.28,0,0,1,1.06-.57.85.85,0,0,1,.72.33,1.52,1.52,0,0,1,.26.94,2.91,2.91,0,0,1-.37,1.5A1.2,1.2,0,0,1,190.19,68Z"/><path class="cls-1" d="M200.18,56.74a2.74,2.74,0,0,0-2-.82,2.78,2.78,0,0,0-1.23.29c0-.06,0-.11,0-.17a3.78,3.78,0,0,0-.78-2.29,4.91,4.91,0,0,0-.74-.78l-.29-.22a1.31,1.31,0,0,0,1.58-.85l.73-2.2a1.32,1.32,0,0,0-.58-1.55,7,7,0,0,0-3.38-.72,6.2,6.2,0,0,0-4.92,2,1.32,1.32,0,0,0,0-.19,1.3,1.3,0,0,0-.92-1.25,13.76,13.76,0,0,0-3.89-.58,8.44,8.44,0,0,0-7.53,3.87l.39-2.08a1.3,1.3,0,0,0-.27-1.07,3,3,0,0,0,1-2.24,2.76,2.76,0,0,0-2.87-2.84,3.09,3.09,0,0,0-3.1,3.05v0a2.85,2.85,0,0,0,.46,1.59,1.31,1.31,0,0,0-.67.51,1.31,1.31,0,0,0-.54-.4,7.54,7.54,0,0,0-2.6-.43A8.07,8.07,0,0,0,161.16,51l.3-1.47a1.31,1.31,0,0,0-.89-1.51,13.76,13.76,0,0,0-3.89-.58A8.6,8.6,0,0,0,150,50.21a8.16,8.16,0,0,0-1,1.46s0-.08,0-.11c0-2.51-1.53-4.14-3.9-4.14a5.48,5.48,0,0,0-3.29,1.1,3.8,3.8,0,0,0-2.84-1.1,5.49,5.49,0,0,0-2.55.61,1.31,1.31,0,0,0-.91-.37h-2.68a1.31,1.31,0,0,0-.66.18,1.3,1.3,0,0,0-.78-.39,6.21,6.21,0,0,0-.73,0,4.44,4.44,0,0,0-2.29.64,1.31,1.31,0,0,0-.95-.41h-2.7a1.3,1.3,0,0,0-1.29,1.06,1.3,1.3,0,0,0-.8-.72,13.75,13.75,0,0,0-3.89-.58,8.93,8.93,0,0,0-6,2l0-.24a1.44,1.44,0,0,0,0-.25,1.31,1.31,0,0,0-.3-.84l-.12-.13a1.3,1.3,0,0,0,1.24-1l.54-2.48a1.31,1.31,0,0,0-.76-1.48,5.64,5.64,0,0,0-2.19-.37A5.85,5.85,0,0,0,107.33,44a6.59,6.59,0,0,0-2.09,3.68h-1a1.32,1.32,0,0,0-.36,0,4.88,4.88,0,0,0,.34-1.78,4.51,4.51,0,0,0-4.62-4.6,4.86,4.86,0,0,0-4.1,2.25,3,3,0,0,0-2.5-.41l-1.82.5a3,3,0,0,0-3-2.51H85a3.07,3.07,0,0,0-3,2.49l-.44,2.29H78.36a3,3,0,0,0-1.65.5,3,3,0,0,0-1.67-.5H72.52l.07-.52a3.15,3.15,0,0,0,0-.41,3.06,3.06,0,0,0-3.07-3.06H65.34a3.08,3.08,0,0,0-2.74,1.69,3.09,3.09,0,0,0-2.73-1.69H55.72a3.06,3.06,0,0,0-3,2.32L49.09,58.81a3.06,3.06,0,0,0,3,3.81h2.85a3,3,0,0,0,1.94-.71,3,3,0,0,0,1.6.47h2.42a3,3,0,0,0,1.69-.51,3,3,0,0,0,2,.75h3a3.06,3.06,0,0,0,2.14-.89,5.82,5.82,0,0,0,3.58,1.13,7,7,0,0,0,2.43-.47,2.78,2.78,0,0,0,1.07.23h2.74a3,3,0,0,0,1.28-.3,3,3,0,0,0,1.27.3h3.11a3,3,0,0,0,2.3-1.06,6.09,6.09,0,0,0,3.94,1.3,9.17,9.17,0,0,0,2.88-.42,3,3,0,0,0,1,.18h3.11a3.07,3.07,0,0,0,3-2.49l.07-.38H103a1.31,1.31,0,0,0,1.29,1.1h3.09a1.31,1.31,0,0,0,1.29-1.07v0h2.43a4.31,4.31,0,0,0,3.18,1.33,4.86,4.86,0,0,0,2.49-.67l0,0a1.32,1.32,0,0,0,.94.4h2.87a1.28,1.28,0,0,0,1.14-.68,1.25,1.25,0,0,0,.14.2,1.3,1.3,0,0,0,1,.48H126a1.31,1.31,0,0,0,1.29-1.07v0h2.3a1.31,1.31,0,0,0,1.29,1.09h3a1.31,1.31,0,0,0,1.29-1.08h.59a1.32,1.32,0,0,0,.28.62,1.31,1.31,0,0,0,1,.47h3a1.31,1.31,0,0,0,1.29-1.07v0H142a1.31,1.31,0,0,0,1.29,1.09h3a1.31,1.31,0,0,0,1.29-1.07v0h1.55a4.31,4.31,0,0,0,3.18,1.33,4.86,4.86,0,0,0,2.49-.67l0,0a1.32,1.32,0,0,0,.95.4h2.87a1.32,1.32,0,0,0,.94-.4,1.3,1.3,0,0,0,.35-.69h1.77a5.91,5.91,0,0,0,3.91,1.33,8.59,8.59,0,0,0,3.57-.69l.07,0v0a1.31,1.31,0,0,0,1,.48h3.11a1.31,1.31,0,0,0,1.29-1.07v0h1.59a4.31,4.31,0,0,0,3.18,1.33,4.85,4.85,0,0,0,2.49-.67l0,0a1.31,1.31,0,0,0,.94.4h2.87a1.31,1.31,0,0,0,.94-.4,1.29,1.29,0,0,0,.24-.36,7.67,7.67,0,0,0,3.82,1h0a6.7,6.7,0,0,0,4.7-1.59,2.8,2.8,0,1,0,4.66-2.76Z"/><path class="cls-3" d="M102.93,45.93a3.28,3.28,0,0,0-3.36-3.34A3.58,3.58,0,0,0,96,46.13a3.62,3.62,0,0,0,.2,1.21,1.77,1.77,0,0,0-.69-.14h-.07l.14-.73a1.81,1.81,0,0,0-2.26-2.07l-3.19.89a1.8,1.8,0,0,0-.35.14l.16-.85a1.8,1.8,0,0,0-1.77-2.14H85a1.8,1.8,0,0,0-1.77,1.47l-.7,3.67a1.8,1.8,0,0,0-1.09-.37H78.36a1.79,1.79,0,0,0-1.65,1.15,1.78,1.78,0,0,0-.28-.5A1.8,1.8,0,0,0,75,47.19H71.93a1.81,1.81,0,0,0-.88.23l.29-2.18a1.81,1.81,0,0,0-1.79-2H65.34a1.8,1.8,0,0,0-1.62,1l-1.79,3.67-.25-3a1.81,1.81,0,0,0-1.8-1.66H55.72A1.8,1.8,0,0,0,54,44.57L50.32,59.12a1.81,1.81,0,0,0,1.75,2.24h2.85A1.81,1.81,0,0,0,56.67,60l.06-.25a1.78,1.78,0,0,0,1.73,1.39h2.42a1.8,1.8,0,0,0,1.61-1l.28-.55a1.8,1.8,0,0,0,1.8,1.79h3a1.81,1.81,0,0,0,1.79-1.56l0-.31a4.18,4.18,0,0,0,3.89,2.12,5.88,5.88,0,0,0,2.5-.59,1.77,1.77,0,0,0,1,.35h2.74a1.8,1.8,0,0,0,1.28-.54,1.8,1.8,0,0,0,1.27.54h3.11A1.8,1.8,0,0,0,87,59.9l.18-.93a4.2,4.2,0,0,0,4.29,2.63,7.91,7.91,0,0,0,2.49-.36,1.73,1.73,0,0,0,.37-.2,1.8,1.8,0,0,0,1,.33h3.11a1.8,1.8,0,0,0,1.77-1.47l2-10.56a1.8,1.8,0,0,0-.14-1.09A3.51,3.51,0,0,0,102.93,45.93Z"/><path class="cls-1" d="M64.57,59.56l.88-6c.24-1.58.56-3.59,1-5.68h-.06c-.8,1.88-1.71,3.89-2.5,5.48l-3,6H58.46l-.52-5.89c-.13-1.6-.24-3.61-.32-5.55h0c-.41,1.92-.84,4.12-1.21,5.68l-1.45,6H52.07L55.72,45h4.17l.45,5.53c.09,1.36.24,3,.26,4.64h.09a47.49,47.49,0,0,1,2-4.64L65.34,45h4.21l-2,14.55Z"/><path class="cls-1" d="M81.47,49l-1.36,7.12c-.26,1.34-.41,2.48-.56,3.43H76.81l.2-1.73h0a4.59,4.59,0,0,1-3.65,2c-1.68,0-2.7-1-2.7-3a9.52,9.52,0,0,1,.22-1.94L71.93,49H75L74,54.66A8.46,8.46,0,0,0,73.83,56c0,.69.26,1.23,1.06,1.23,1.06,0,2.14-1.27,2.55-3.39L78.36,49Z"/><path class="cls-1" d="M82.1,59.56,85,44.23h3.11L85.21,59.56Z"/><path class="cls-1" d="M93.78,46.13,93.24,49h2.25L95,51.35H92.79l-.71,3.58a7.66,7.66,0,0,0-.17,1.34.78.78,0,0,0,.89.89,5.82,5.82,0,0,0,.86,0l-.37,2.44a6.06,6.06,0,0,1-1.84.24c-1.86,0-2.74-1-2.74-2.29a10.49,10.49,0,0,1,.22-2l.82-4.19H88.4L88.84,49H90.2l.39-2Z"/><path class="cls-1" d="M95.33,59.56l2-10.56h3.11l-2,10.56Zm3.93-11.88a1.43,1.43,0,0,1-1.49-1.51,1.77,1.77,0,0,1,1.79-1.77,1.47,1.47,0,0,1,1.56,1.53,1.72,1.72,0,0,1-1.84,1.75Z"/><path class="cls-2" d="M104.32,59.53l1.53-8.2h-2l.45-2.35h2l.11-.56A5.64,5.64,0,0,1,108.18,45a4.55,4.55,0,0,1,3-1,4.37,4.37,0,0,1,1.66.26l-.54,2.48a2.39,2.39,0,0,0-1-.17c-1,0-1.62.86-1.81,1.92l-.11.52h2.09L111,51.33h-2.07l-1.53,8.2Z"/><path class="cls-2" d="M117.77,59.53c0-.62.09-1.34.15-2.09h-.06a4,4,0,0,1-3.54,2.33c-1.9,0-3.19-1.47-3.19-3.67a7.13,7.13,0,0,1,7.56-7.36,12.53,12.53,0,0,1,3.5.52l-1.12,5.53a25.35,25.35,0,0,0-.41,4.75Zm.91-8.35a4.84,4.84,0,0,0-.84-.09c-2,0-3.48,2.46-3.48,4.43,0,1,.41,1.75,1.27,1.75s2.07-1.06,2.55-3.65Z"/><path class="cls-2" d="M122.93,59.53l1.19-6.28c.3-1.6.43-3.37.54-4.28h2.7c-.06.71-.13,1.42-.19,2.16h.06a4,4,0,0,1,3.37-2.4,5.05,5.05,0,0,1,.58,0l-.6,3-.5,0c-2,0-2.92,1.77-3.3,3.84L126,59.53Z"/><path class="cls-2" d="M130.92,59.53l1.32-7.12c.24-1.34.41-2.5.54-3.43h2.68l-.19,1.71h0a4.27,4.27,0,0,1,3.61-1.94,2.27,2.27,0,0,1,2.5,2,4.35,4.35,0,0,1,3.63-2c1.64,0,2.59,1,2.59,2.83a11.23,11.23,0,0,1-.19,1.81l-1.14,6.15h-3l1.06-5.76a6.79,6.79,0,0,0,.15-1.29c0-.74-.32-1.25-1.06-1.25-1,0-2.05,1.4-2.46,3.52l-.89,4.79h-3l1.08-5.81a6.44,6.44,0,0,0,.15-1.21c0-.71-.24-1.3-1-1.3-1.06,0-2.16,1.49-2.55,3.56l-.86,4.75Z"/><path class="cls-2" d="M155.77,59.53c0-.62.09-1.34.15-2.09h-.07a4,4,0,0,1-3.54,2.33c-1.9,0-3.2-1.47-3.2-3.67a7.13,7.13,0,0,1,7.56-7.36,12.53,12.53,0,0,1,3.5.52L159,54.79a25.6,25.6,0,0,0-.41,4.75Zm.91-8.35a4.84,4.84,0,0,0-.84-.09c-2,0-3.48,2.46-3.48,4.43,0,1,.41,1.75,1.27,1.75s2.07-1.06,2.55-3.65Z"/><path class="cls-2" d="M168.61,59.21a7.29,7.29,0,0,1-3,.56,4.11,4.11,0,0,1-4.45-4.34,6.63,6.63,0,0,1,6.89-6.69,6.4,6.4,0,0,1,2.14.34l-.76,2.4a3.55,3.55,0,0,0-1.42-.26,3.66,3.66,0,0,0-3.58,3.86,2,2,0,0,0,2.07,2.18,5.33,5.33,0,0,0,2.09-.43Z"/><path class="cls-2" d="M170.28,59.53l2-10.56h3.11l-2,10.56Zm3.93-11.87a1.43,1.43,0,0,1-1.49-1.51,1.77,1.77,0,0,1,1.79-1.77,1.47,1.47,0,0,1,1.55,1.53,1.72,1.72,0,0,1-1.83,1.75Z"/><path class="cls-2" d="M182.91,59.53c0-.62.09-1.34.15-2.09H183a4,4,0,0,1-3.54,2.33c-1.9,0-3.19-1.47-3.19-3.67a7.13,7.13,0,0,1,7.56-7.36,12.54,12.54,0,0,1,3.5.52l-1.12,5.53a25.43,25.43,0,0,0-.41,4.75Zm.91-8.35a4.82,4.82,0,0,0-.84-.09c-2,0-3.48,2.46-3.48,4.43,0,1,.41,1.75,1.27,1.75s2.07-1.06,2.55-3.65Z"/><path class="cls-2" d="M188.35,56.75a6.89,6.89,0,0,0,2.76.73c.89,0,1.34-.43,1.34-.95s-.35-.88-1.32-1.36c-1.23-.61-2.25-1.49-2.25-2.81,0-2.18,1.92-3.63,4.64-3.63a5.79,5.79,0,0,1,2.72.54l-.73,2.2A4.94,4.94,0,0,0,193.4,51c-.82,0-1.38.37-1.38.93s.43.8,1.29,1.21c1.14.58,2.35,1.42,2.35,2.89,0,2.42-2.05,3.76-4.84,3.73a6.24,6.24,0,0,1-3.24-.84Z"/><path class="cls-3" d="M199.44,59.95a1.73,1.73,0,0,1-3-1.25,1.66,1.66,0,0,1,.54-1.27,1.7,1.7,0,0,1,1.2-.47,1.74,1.74,0,0,1,1.22,3ZM197.2,57.7a1.44,1.44,0,0,0,1,2.45,1.38,1.38,0,0,0,1-.43,1.4,1.4,0,0,0,.42-1,1.38,1.38,0,0,0-.42-1,1.41,1.41,0,0,0-2,0Zm.26,2V57.74h.93a.93.93,0,0,1,.38.1.48.48,0,0,1,.26.46.43.43,0,0,1-.13.35.62.62,0,0,1-.33.13.68.68,0,0,1,.27.11.53.53,0,0,1,.17.43v.17a.26.26,0,0,0,0,.06.23.23,0,0,0,0,.05l0,.06h-.48a2.09,2.09,0,0,1,0-.27,1.05,1.05,0,0,0,0-.23.24.24,0,0,0-.15-.14.52.52,0,0,0-.17,0H198v.68Zm.92-1.55a.85.85,0,0,0-.29,0H198v.56h.2a.46.46,0,0,0,.28-.07.26.26,0,0,0,.1-.23A.22.22,0,0,0,198.39,58.12Z"/></svg>