<svg id="Capa_1" data-name="Capa 1" xmlns="http://www.w3.org/2000/svg" xmlns:xlink="http://www.w3.org/1999/xlink" viewBox="0 0 250 70"><defs><style>.cls-1{fill:none;}.cls-2{fill:#a8c145;}.cls-3{fill:#004b97;}.cls-4{fill:#fff;}.cls-5{clip-path:url(#clip-path);}</style><clipPath id="clip-path"><path class="cls-1" d="M31.15,15.05c13.2,0,21.73,9,19,20.18S34.66,55.46,21.42,55.42s-21.73-9-19-20.18S17.95,15.05,31.15,15.05Z"/></clipPath></defs><title>250x70logo</title><path class="cls-2" d="M29.27,14.58c13.21,0,21.73,9,19,20.18S32.75,54.95,19.54,54.95s-21.73-9-19-20.18S16.06,14.58,29.27,14.58Z"/><path class="cls-3" d="M31.15,15.05c13.2,0,21.73,9,19,20.18S34.63,55.42,21.42,55.42s-21.73-9-19-20.18S17.95,15.05,31.15,15.05Z"/><path class="cls-2" d="M25.22,46.71l1.59-7.42c.42-1.95,1-4.43,1.67-7H28.4c-1.14,2.32-2.43,4.81-3.55,6.78l-4.18,7.37h-3l-.15-7.29c0-2,0-4.46.06-6.86h-.05c-.67,2.38-1.38,5.1-2,7l-2.29,7.42H9.76l5.72-18h5.15l.1,6.83c0,1.68,0,3.74-.07,5.74h.11a63.35,63.35,0,0,1,2.81-5.74l3.79-6.83h5.2L29,46.71Z"/><path class="cls-4" d="M25.63,21.26A9.22,9.22,0,0,0,27.4,20c.41-.48.73-.74,1.16-.33a5.52,5.52,0,0,0,3.77,1.61s.86.11.13.37a5.08,5.08,0,0,1-2.6-.25s.12.4,1.69.58c0,0,.94,0,0,.22a3.93,3.93,0,0,1-2.63-.58s.26.48,1.43.84c0,0,.52.25-.31.22a3.52,3.52,0,0,1-2.11-.84,1.67,1.67,0,0,0,.77.77c.61.33-.05.26-.36.22A3,3,0,0,1,26.27,22s-.38-.4-.7-.36S25.63,21.26,25.63,21.26Z"/><path class="cls-4" d="M25.22,21.26A4.93,4.93,0,0,1,24,20.05c-.21-.48-.42-.73-1-.33a8.61,8.61,0,0,1-4.45,1.63s-.91.11-.29.37a5.45,5.45,0,0,0,2.71-.27s-.29.41-1.94.59c0,0-.94,0-.1.22a5,5,0,0,0,2.88-.6,4.22,4.22,0,0,1-1.79.85s-.63.26.21.22a5.3,5.3,0,0,0,2.47-.85,3.1,3.1,0,0,1-1.1.77c-.74.33-.05.26.26.22A4.43,4.43,0,0,0,24.29,22s.55-.41.86-.37S25.22,21.26,25.22,21.26Z"/><polygon class="cls-4" points="25.37 19.83 22.38 35.01 22.58 35.01 26.14 19.86 25.37 19.83"/><path class="cls-4" d="M23.52,24.13s.74-.3.69-.81-1.15-.22-1.45,0-1.51,1-1,1.8,1.39.8,2,1,1.51.47,1.28,1.32-1.42,1.33-1.8,1.62-1.4.92-1.59,1.62c-.25.92.73,1.21,1.72,1.69s-.19,1.65-.55,1.62c0,0-.33.33.11.22s1.94-1.07,1-1.88-1.69-1.09-1.56-1.72c.09-.44,1.09-1.22,2.06-1.62A2.45,2.45,0,0,0,26,27.39c.11-.51-.21-1.15-1.09-1.47s-2.13-.51-2.08-1S23.13,24.28,23.52,24.13Z"/><path class="cls-4" d="M26.12,24.12s-.61-.29-.35-.81,1.24-.22,1.46,0,1.09,1,.25,1.8a4.89,4.89,0,0,1-2.4,1c-.67.22-1.71.48-1.84,1.33s.86,1.32,1.12,1.61,1,.91.91,1.61c-.14.92-1.24,1.22-2.44,1.7A.85.85,0,0,0,22.69,34s.19.33-.2.22-1.49-1.06-.23-1.87,2.16-1.1,2.29-1.73c.09-.44-.58-1.21-1.38-1.61a1.45,1.45,0,0,1-.85-1.61A2.37,2.37,0,0,1,24,25.93c.95-.3,2.34-.52,2.5-1S26.46,24.27,26.12,24.12Z"/><path class="cls-4" d="M25.74,20a.63.63,0,0,1-.69-.62.75.75,0,0,1,.8-.72.65.65,0,0,1,.71.63.73.73,0,0,1-.82.72Z"/><g class="cls-5"><path class="cls-4" d="M32.41,54l3-15.75H33.59l.59-3.09H36l.14-.74a7.44,7.44,0,0,1,2.32-4.51,6,6,0,0,1,3.94-1.33,5.75,5.75,0,0,1,2.19.34l-.71,3.26A3.16,3.16,0,0,0,42.52,32c-1.3,0-2.13,1.13-2.38,2.52l-.14.68h2.75l-.6,3.09H39.43L36.47,54Z"/></g><path class="cls-2" d="M126.43,43.92l2-10.6h-1.76l.58-3H129l.14-.73a7.3,7.3,0,0,1,2.29-4.43,5.88,5.88,0,0,1,3.88-1.31,5.63,5.63,0,0,1,2.15.33l-.7,3.21a3.08,3.08,0,0,0-1.31-.22c-1.28,0-2.09,1.11-2.34,2.48l-.14.67h2.71l-.59,3H132.4l-2,10.6Z"/><path class="cls-2" d="M143.81,43.92c0-.81.11-1.73.19-2.7h-.08a5.14,5.14,0,0,1-4.57,3c-2.45,0-4.13-1.89-4.13-4.74,0-4.6,3-9.51,9.76-9.51a16.2,16.2,0,0,1,4.52.67L148,37.79a32.81,32.81,0,0,0-.53,6.13ZM145,33.13a6.21,6.21,0,0,0-1.09-.11c-2.59,0-4.49,3.18-4.49,5.72,0,1.34.53,2.26,1.65,2.26s2.68-1.37,3.29-4.71Z"/><path class="cls-2" d="M150.47,43.92,152,35.81c.39-2.06.56-4.35.7-5.52h3.49c-.08.92-.17,1.84-.25,2.79H156a5.1,5.1,0,0,1,4.35-3.1,6.69,6.69,0,0,1,.75,0l-.78,3.9c-.2,0-.42,0-.64,0-2.57,0-3.76,2.29-4.27,5l-.95,5.07Z"/><path class="cls-2" d="M160.79,43.92l1.7-9.2c.31-1.73.53-3.23.7-4.43h3.46l-.25,2.2h.06A5.51,5.51,0,0,1,171.1,30a2.93,2.93,0,0,1,3.24,2.57A5.61,5.61,0,0,1,179,30c2.12,0,3.35,1.34,3.35,3.65a14.66,14.66,0,0,1-.25,2.34l-1.48,7.95h-3.88l1.37-7.44a8.78,8.78,0,0,0,.19-1.67c0-.95-.42-1.62-1.37-1.62-1.34,0-2.65,1.81-3.18,4.55l-1.14,6.19h-3.88l1.39-7.5a8.17,8.17,0,0,0,.19-1.56c0-.92-.31-1.67-1.28-1.67-1.37,0-2.79,1.93-3.29,4.6l-1.11,6.13Z"/><path class="cls-2" d="M192.88,43.92c0-.81.11-1.73.19-2.7H193a5.14,5.14,0,0,1-4.57,3c-2.45,0-4.13-1.89-4.13-4.74,0-4.6,3-9.51,9.76-9.51a16.24,16.24,0,0,1,4.52.67l-1.45,7.14a32.92,32.92,0,0,0-.53,6.13Zm1.17-10.79A6.19,6.19,0,0,0,193,33c-2.59,0-4.49,3.18-4.49,5.72,0,1.34.53,2.26,1.65,2.26s2.68-1.37,3.29-4.71Z"/><path class="cls-2" d="M209.48,43.51a9.43,9.43,0,0,1-3.88.72c-3.37,0-5.74-2.06-5.74-5.6A8.56,8.56,0,0,1,208.75,30a8.24,8.24,0,0,1,2.76.45l-1,3.1a4.59,4.59,0,0,0-1.84-.34,4.73,4.73,0,0,0-4.63,5A2.56,2.56,0,0,0,206.74,41a6.9,6.9,0,0,0,2.71-.56Z"/><path class="cls-2" d="M211.62,43.92l2.59-13.63h4l-2.59,13.63Zm5.07-15.33a1.85,1.85,0,0,1-1.92-2,2.28,2.28,0,0,1,2.31-2.28,1.89,1.89,0,0,1,2,2,2.23,2.23,0,0,1-2.37,2.26Z"/><path class="cls-2" d="M227.93,43.92c0-.81.11-1.73.2-2.7H228a5.14,5.14,0,0,1-4.57,3c-2.45,0-4.13-1.89-4.13-4.74,0-4.6,3-9.51,9.76-9.51a16.23,16.23,0,0,1,4.52.67l-1.45,7.14a33,33,0,0,0-.53,6.13Zm1.17-10.79A6.17,6.17,0,0,0,228,33c-2.59,0-4.49,3.18-4.49,5.72,0,1.34.53,2.26,1.65,2.26s2.68-1.37,3.29-4.71Z"/><path class="cls-2" d="M235,40.33a8.91,8.91,0,0,0,3.57.95c1.14,0,1.73-.56,1.73-1.23s-.45-1.14-1.7-1.76c-1.59-.78-2.9-1.92-2.9-3.62,0-2.82,2.48-4.68,6-4.68a7.49,7.49,0,0,1,3.51.7l-.95,2.84a6.37,6.37,0,0,0-2.73-.61c-1.06,0-1.78.47-1.78,1.2,0,.56.56,1,1.67,1.56,1.48.75,3,1.84,3,3.74,0,3.12-2.65,4.85-6.25,4.82A8.09,8.09,0,0,1,234,43.15Z"/><path class="cls-3" d="M124.64,26.35A4.23,4.23,0,0,0,120.3,22a4.59,4.59,0,0,0-4.38,6.13A2.32,2.32,0,0,0,115,28h-.09l.18-.95a2.36,2.36,0,0,0,0-.43,2.33,2.33,0,0,0-3-2.25l-4.13,1.14a2.37,2.37,0,0,0-.45.18l.21-1.09a2.33,2.33,0,0,0-2.29-2.77h-4a2.33,2.33,0,0,0-2.29,1.89l-.91,4.74a2.33,2.33,0,0,0-1.4-.47h-4a2.31,2.31,0,0,0-2.13,1.48A2.28,2.28,0,0,0,88.62,28h-4a2.33,2.33,0,0,0-1.14.3l.38-2.82a2.33,2.33,0,0,0-2.31-2.64H76.1A2.33,2.33,0,0,0,74,24.13l-2.32,4.74L71.37,25A2.33,2.33,0,0,0,69,22.82H63.66a2.33,2.33,0,0,0-2.26,1.76L56.69,43.38a2.33,2.33,0,0,0,2.26,2.9h3.68a2.33,2.33,0,0,0,2.27-1.79l.08-.32A2.3,2.3,0,0,0,67.2,46h3.12a2.33,2.33,0,0,0,2.09-1.29l.36-.71a2.33,2.33,0,0,0,2.33,2.31H79a2.33,2.33,0,0,0,2.31-2l.05-.4a5.39,5.39,0,0,0,5,2.73,7.58,7.58,0,0,0,3.23-.76,2.28,2.28,0,0,0,1.29.45h3.54a2.32,2.32,0,0,0,1.65-.69,2.32,2.32,0,0,0,1.64.69h4A2.33,2.33,0,0,0,104,44.39l.23-1.2c.69,1.88,2.47,3.4,5.54,3.4a10.23,10.23,0,0,0,3.22-.47,2.28,2.28,0,0,0,.48-.26,2.32,2.32,0,0,0,1.32.42h4a2.33,2.33,0,0,0,2.29-1.9l2.59-13.64a2.32,2.32,0,0,0-.18-1.4A4.54,4.54,0,0,0,124.64,26.35Z"/><path class="cls-4" d="M75.09,43.95l1.14-7.75c.31-2,.73-4.63,1.25-7.33h-.08c-1,2.43-2.2,5-3.23,7.08l-3.85,7.7H67.2L66.53,36c-.17-2.06-.31-4.66-.42-7.17h-.06c-.53,2.48-1.09,5.33-1.56,7.33l-1.87,7.75H58.95l4.71-18.79H69l.58,7.14c.11,1.76.31,3.9.33,6h.11a61.59,61.59,0,0,1,2.54-6l3.49-7.14h5.44L79,43.95Z"/><path class="cls-4" d="M96.93,30.32l-1.76,9.2c-.34,1.73-.53,3.21-.73,4.43H90.9l.25-2.23H91.1a5.93,5.93,0,0,1-4.71,2.54c-2.18,0-3.49-1.23-3.49-3.82a12.31,12.31,0,0,1,.28-2.51l1.42-7.61h4l-1.37,7.3a11,11,0,0,0-.19,1.78c0,.89.34,1.59,1.37,1.59,1.37,0,2.76-1.65,3.29-4.38l1.2-6.3Z"/><path class="cls-4" d="M97.74,43.95l3.79-19.8h4l-3.79,19.8Z"/><path class="cls-4" d="M112.82,26.61l-.7,3.71H115l-.59,3h-2.9L110.62,38a9.83,9.83,0,0,0-.22,1.73,1,1,0,0,0,1.14,1.14,7.48,7.48,0,0,0,1.11-.06l-.47,3.15a7.87,7.87,0,0,1-2.37.31c-2.4,0-3.54-1.25-3.54-3a13.46,13.46,0,0,1,.28-2.54l1.06-5.41h-1.73l.56-3h1.75l.5-2.57Z"/><path class="cls-4" d="M114.83,43.95l2.59-13.63h4l-2.59,13.63Zm5.07-15.34a1.85,1.85,0,0,1-1.92-2,2.28,2.28,0,0,1,2.31-2.29,1.9,1.9,0,0,1,2,2,2.23,2.23,0,0,1-2.37,2.26Z"/><path class="cls-3" d="M249.37,44.19a2.11,2.11,0,0,1-3.59-1.52,2,2,0,0,1,.66-1.54,2.07,2.07,0,0,1,1.45-.57,2.12,2.12,0,0,1,1.48,3.63Zm-2.72-2.74a1.76,1.76,0,0,0,0,2.47,1.73,1.73,0,0,0,2.46,0,1.71,1.71,0,0,0,.51-1.24,1.69,1.69,0,0,0-.51-1.22,1.71,1.71,0,0,0-2.47,0Zm.31,2.4V41.5h1.14a1.11,1.11,0,0,1,.46.12.59.59,0,0,1,.31.56.52.52,0,0,1-.16.43.76.76,0,0,1-.41.16.81.81,0,0,1,.33.14.64.64,0,0,1,.21.52v.21a.39.39,0,0,0,0,.07.38.38,0,0,0,0,.07l0,.06h-.58a1.94,1.94,0,0,1,0-.32,1,1,0,0,0,0-.29.28.28,0,0,0-.17-.17.67.67,0,0,0-.21,0h-.26v.83ZM248.08,42a1,1,0,0,0-.36,0h-.15v.68h.24a.55.55,0,0,0,.33-.09.32.32,0,0,0,.12-.28A.27.27,0,0,0,248.08,42Z"/><path class="cls-3" d="M192,48.25a1.92,1.92,0,0,0-.72-.32,5.61,5.61,0,0,0-1.14-.09h-1.29l-1,5.39h1.34a5.64,5.64,0,0,0,1.12-.09,3.42,3.42,0,0,0,.87-.32,3,3,0,0,0,1.18-1.13,3.2,3.2,0,0,0,.42-1.63A2.11,2.11,0,0,0,192,48.25Zm-.66,3.1a2.3,2.3,0,0,1-.93.86,2.72,2.72,0,0,1-.45.19,2.28,2.28,0,0,1-.62.07H189l.72-3.9h.35a1.85,1.85,0,0,1,1,.22,1.44,1.44,0,0,1,.56,1.28A2.4,2.4,0,0,1,191.3,51.35Zm2,1.88h2.93l.14-.74h-1.88l.32-1.71h1.55l.14-.74H194.9l.26-1.45h1.6l.14-.74h-2.65Zm10.18-5a1.91,1.91,0,0,0-.72-.32,5.62,5.62,0,0,0-1.14-.09h-1.29l-1,5.39h1.34a5.64,5.64,0,0,0,1.12-.09,3.39,3.39,0,0,0,.87-.32,3,3,0,0,0,1.18-1.13,3.2,3.2,0,0,0,.42-1.63A2.11,2.11,0,0,0,203.44,48.25Zm-.66,3.1a2.3,2.3,0,0,1-.92.86,2.69,2.69,0,0,1-.45.19,2.27,2.27,0,0,1-.62.07h-.3l.72-3.9h.35a1.85,1.85,0,0,1,1,.22,1.44,1.44,0,0,1,.56,1.28A2.4,2.4,0,0,1,202.78,51.35Zm5.47-2.77.14-.74h-2.65l-1,5.39h2.93l.14-.74h-1.88l.32-1.71h1.55l.14-.74h-1.55l.26-1.45Zm2.56-.83a1.86,1.86,0,0,0-1.22.4,1.27,1.27,0,0,0-.49,1,2,2,0,0,0,.52,1.19l.52.65a1.45,1.45,0,0,1,.33.81.71.71,0,0,1-.23.54.82.82,0,0,1-.58.22,1.54,1.54,0,0,1-.92-.4l0,0-.44.64,0,0a2.05,2.05,0,0,0,1.42.52,2,2,0,0,0,1.33-.44,1.44,1.44,0,0,0,.52-1.15,1.9,1.9,0,0,0-.53-1.21l-.44-.55a1.8,1.8,0,0,1-.41-.84.61.61,0,0,1,.19-.47.75.75,0,0,1,.53-.18,1.21,1.21,0,0,1,.66.24l0,0,.47-.57,0,0A2,2,0,0,0,210.81,47.75Zm4.69,0a3,3,0,0,0-2.19.88,3,3,0,0,0-.89,2.17,2.43,2.43,0,0,0,.8,1.91,2.5,2.5,0,0,0,1.71.61,3.44,3.44,0,0,0,1.33-.27l0,0-.23-.74,0,0a2.63,2.63,0,0,1-.88.17A1.51,1.51,0,0,1,214,52a1.84,1.84,0,0,1-.44-1.28,2.18,2.18,0,0,1,.56-1.53,1.9,1.9,0,0,1,1.46-.6,2.26,2.26,0,0,1,.91.21l0,0,.44-.62,0,0A2.46,2.46,0,0,0,215.5,47.75Zm4.82,3a4.18,4.18,0,0,1-.31,1.07,1,1,0,0,1-1,.65.75.75,0,0,1-.56-.21.79.79,0,0,1-.21-.57,6.26,6.26,0,0,1,.13-1l.53-2.88h-1l-.51,2.79a8,8,0,0,0-.16,1.25,1.32,1.32,0,0,0,.46,1.06,1.85,1.85,0,0,0,1.23.39,2.15,2.15,0,0,0,1.67-.7,2.28,2.28,0,0,0,.42-.68,6.14,6.14,0,0,0,.28-1.1l.56-3h-1Zm1.83,2.47h2.93l.14-.74h-1.88l.32-1.71h1.55l.14-.74h-1.55l.26-1.45h1.6l.14-.74h-2.65Zm7.57-1.6c-.38-.82-1-2.08-1.95-3.77v0H227l-1,5.39h.92l.68-3.8c.46,1,1.11,2.25,2,3.77v0h.75l1-5.39h-.91Zm6.18-3.8h-4l-.14.74h1.46l-.86,4.65h1l.86-4.65h1.48Zm4.12.55a1.94,1.94,0,0,0-1.5-.64,2.63,2.63,0,0,0-1.81.69,3.33,3.33,0,0,0-.82,1.15,3.42,3.42,0,0,0-.31,1.39,2.51,2.51,0,0,0,.56,1.65,2,2,0,0,0,1.63.71,2.56,2.56,0,0,0,2-.9,3.44,3.44,0,0,0,.88-2.39A2.37,2.37,0,0,0,240,48.38Zm-.95,3.35a1.36,1.36,0,0,1-1.2.75,1,1,0,0,1-.87-.42,2,2,0,0,1-.31-1.2,2.67,2.67,0,0,1,.49-1.63,1.46,1.46,0,0,1,1.2-.65,1,1,0,0,1,.82.37,1.72,1.72,0,0,1,.29,1.07A3.3,3.3,0,0,1,239.07,51.73Z"/></svg>