<?xml version="1.0" encoding="utf-8"?>
<!-- Generator: Adobe Illustrator 21.0.2, SVG Export Plug-In . SVG Version: 6.00 Build 0)  -->
<svg version="1.1" id="Capa_1" xmlns="http://www.w3.org/2000/svg" xmlns:xlink="http://www.w3.org/1999/xlink" x="0px" y="0px"
	 viewBox="0 0 20 20" style="enable-background:new 0 0 20 20;" xml:space="preserve">
<style type="text/css">
	.st0{fill:#FFFFFF;}
</style>
<title>azulblanco</title>
<path class="st0" d="M11.8,16.2l7.5-7.5c1-1,1-2.6,0-3.6l-4.4-4.4l0,0c-1-1-2.6-1-3.6,0L3.8,8.2C3.2,8.7,3,9.5,3,10.2
	C2.3,9.8,1.4,10.1,1,10.9c-0.3,0.6-0.2,1.3,0.3,1.8l0.1,0.1c-0.8,1.2-0.9,2.7-0.4,4l-0.4,0.4c-0.6,0.6-0.6,1.7,0,2.3s1.7,0.6,2.3,0
	l0.4-0.4c1.3,0.5,2.8,0.4,4-0.4l0.1,0.1c0.6,0.6,1.6,0.6,2.2,0.1c0.5-0.5,0.6-1.2,0.3-1.8C10.5,17,11.3,16.8,11.8,16.2z M1.8,13.2
	L6.6,18l0.2,0.2c-1.1,0.6-2.4,0.7-3.5,0.2c-0.1-0.1-0.3,0-0.4,0.1L2.3,19c-0.5,0.2-1.1,0-1.3-0.5c-0.1-0.3-0.1-0.6,0-0.8l0.6-0.6
	c0.1-0.1,0.1-0.3,0.1-0.4C1.1,15.6,1.2,14.3,1.8,13.2L1.8,13.2z M2.9,11L9,17.1c0.3,0.3,0.3,0.9,0,1.2s-0.9,0.3-1.2,0L7.6,18l0,0
	l-0.1-0.1l-5.7-5.7c-0.3-0.3-0.4-0.8-0.1-1.2S2.5,10.6,2.9,11C2.9,10.9,2.9,11,2.9,11z M18.8,8.3l-7.5,7.5c-0.7,0.7-1.9,0.7-2.6,0
	l-4.4-4.4c-0.7-0.7-0.7-1.9,0-2.6l7.5-7.5c0.7-0.7,1.9-0.7,2.6,0l4.4,4.4C19.5,6.4,19.5,7.5,18.8,8.3C18.8,8.3,18.8,8.3,18.8,8.3z
	 M7.3,7.5C7.2,7.7,7.2,7.9,7.3,8l0.8,0.8c0.2,0.1,0.4,0.1,0.5-0.1c0.1-0.1,0.1-0.3,0-0.4L7.8,7.5C7.7,7.4,7.5,7.4,7.3,7.5z M8.9,6.4
	l1.7,1.7c0.2,0.1,0.4,0.1,0.5-0.1c0.1-0.1,0.1-0.3,0-0.4L9.4,5.9C9.3,5.8,9,5.9,8.9,6C8.8,6.1,8.8,6.3,8.9,6.4z M11.3,5.6
	c0.2,0.1,0.4,0.1,0.5-0.1c0.1-0.1,0.1-0.3,0-0.4L11,4.3l0,0c-0.1-0.2-0.3-0.2-0.5-0.1c-0.2,0.1-0.2,0.3-0.1,0.5c0,0,0,0.1,0.1,0.1
	L11.3,5.6L11.3,5.6z M14.3,5c0.1-0.1,0.1-0.4,0-0.5l-1.7-1.8l0,0c-0.2-0.1-0.4-0.1-0.5,0.1C12,3,12,3.1,12.1,3.3L13.8,5l0,0
	C14,5.1,14.2,5.1,14.3,5L14.3,5z M5.8,9.6l1.7,1.7c0.1,0.2,0.3,0.2,0.5,0.1c0.2-0.1,0.2-0.3,0.1-0.5c0,0-0.1-0.1-0.1-0.1L6.3,9.1
	C6.1,9,5.9,9,5.8,9.2C5.7,9.3,5.7,9.5,5.8,9.6z"/>
</svg>
