<?xml version="1.0" encoding="utf-8"?>
<!-- Generator: Adobe Illustrator 21.0.2, SVG Export Plug-In . SVG Version: 6.00 Build 0)  -->
<svg version="1.1" id="Capa_1" xmlns="http://www.w3.org/2000/svg" xmlns:xlink="http://www.w3.org/1999/xlink" x="0px" y="0px"
	 viewBox="0 0 20 20" style="enable-background:new 0 0 20 20;" xml:space="preserve">
<style type="text/css">
	.st0{fill:#FFFFFF;}
</style>
<title>azulblanco</title>
<path class="st0" d="M19.2,0.8c-1.1-1-2.8-1-3.8,0l-5.1,5.1L9.9,5.6c-0.1-0.2-0.4-0.2-0.6,0c-0.2,0.1-0.2,0.4,0,0.6c0,0,0,0,0,0
	l0.7,0.7l-9,9l0,0c-0.4,0.6-0.7,1.3-1,2c-0.1,0.1,0,0.3,0.1,0.4l1.5,1.5c0.1,0.1,0.2,0.1,0.3,0.1c0,0,0,0.1,0.1,0.1
	c0.7-0.3,1.4-0.6,2-1h0.1l9-9l0.7,0.7c0.1,0.2,0.4,0.2,0.6,0s0.2-0.4,0-0.6c0,0,0,0,0,0L14,9.8l5.1-5.1c1.1-1,1.2-2.7,0.2-3.8
	C19.3,0.9,19.2,0.8,19.2,0.8z M3.6,18.4c-0.5,0.3-1,0.6-1.6,0.8L0.9,18c0.2-0.6,0.5-1.1,0.8-1.6l9-9l2,2L3.6,18.4z M13.5,9.2
	l-2.7-2.7L16,1.3c0.6-0.9,1.8-1.1,2.7-0.5s1.1,1.8,0.5,2.7C19,3.7,18.9,3.9,18.7,4L13.5,9.2z"/>
</svg>
