<?xml version="1.0" encoding="utf-8"?>
<!-- Generator: Adobe Illustrator 21.0.2, SVG Export Plug-In . SVG Version: 6.00 Build 0)  -->
<svg version="1.1" id="Capa_1" xmlns="http://www.w3.org/2000/svg" xmlns:xlink="http://www.w3.org/1999/xlink" x="0px" y="0px"
	 viewBox="0 0 20 20" style="enable-background:new 0 0 20 20;" xml:space="preserve">
<style type="text/css">
	.st0{fill:#FFFFFF;}
</style>
<title>azulblanco</title>
<path class="st0" d="M19.8,4.1l-3.9-3.9c-0.1-0.1-0.4-0.1-0.5,0s-0.1,0.4,0,0.5l0,0L17,2.4l-2.2,2.3l-3.4-3.4
	c-0.1-0.1-0.4-0.1-0.5,0s-0.1,0.4,0,0.5l0,0l0.8,0.8l-8,8c-1.5,1.5-1.6,3.8-0.3,5.4l-3.2,3.2c-0.1,0.1-0.1,0.4,0,0.5
	c0.1,0.1,0.4,0.1,0.5,0l0,0l3.2-3.2c1.6,1.3,4,1.2,5.4-0.2l8-8l0.8,0.8c0.1,0.1,0.4,0.1,0.5,0c0.1-0.1,0.1-0.4,0-0.5l0,0l-3.4-3.4
	L17.6,3l1.7,1.7c0.1,0.1,0.4,0.1,0.5,0C19.9,4.5,19.9,4.3,19.8,4.1L19.8,4.1z M8.8,15.8c-1.3,1.3-3.4,1.3-4.6,0s-1.3-3.4,0-4.6l0,0
	l0.6-0.6l1.7,1.7c0.1,0.2,0.4,0.2,0.5,0c0.2-0.1,0.2-0.4,0-0.5l0,0L5.3,10l1.3-1.3l1.7,1.7c0.1,0.1,0.4,0.1,0.5,0S9,10,8.9,9.9
	L7.2,8.2l1.3-1.3l1.7,1.7c0.2,0.1,0.4,0.1,0.6,0s0.1-0.4,0-0.6l0,0L9,6.3L10.3,5L12,6.7c0.1,0.1,0.4,0.1,0.5,0s0.1-0.4,0-0.5l0,0
	l-1.7-1.7l1.3-1.3l4.6,4.6L8.8,15.8z"/>
</svg>
