<svg id="Capa_1" data-name="Capa 1" xmlns="http://www.w3.org/2000/svg" viewBox="0 0 140 80"><defs><style>.cls-1{fill:#d94d70;}.cls-2{fill:#fff;}</style></defs><title>icono</title><circle class="cls-1" cx="70" cy="40" r="39.73"/><path class="cls-2" d="M82.79,65.19H57.21A12.42,12.42,0,0,1,44.8,52.79V27.21A12.42,12.42,0,0,1,57.21,14.8H82.79A12.42,12.42,0,0,1,95.19,27.21V52.79A12.42,12.42,0,0,1,82.79,65.19ZM57.21,18.35a8.87,8.87,0,0,0-8.86,8.86V52.79a8.87,8.87,0,0,0,8.86,8.86H82.79a8.87,8.87,0,0,0,8.86-8.86V27.21a8.87,8.87,0,0,0-8.86-8.86Z"/><path class="cls-2" d="M69.87,50.8A11.14,11.14,0,1,1,81,39.67,11.15,11.15,0,0,1,69.87,50.8Zm0-18.73a7.59,7.59,0,1,0,7.59,7.59A7.6,7.6,0,0,0,69.87,32.07Z"/><circle class="cls-2" cx="82.39" cy="25.94" r="3.15"/></svg>