<svg id="Capa_1" data-name="Capa 1" xmlns="http://www.w3.org/2000/svg" viewBox="0 0 500 200"><defs><style>.cls-1{fill:#fff;}.cls-2{fill:#a8c145;}.cls-3{fill:#004b97;}.cls-4{fill:none;}</style></defs><title>icono</title><path class="cls-1" d="M261.51,2.17c39.21,3.82,61.92,33.05,50.72,65.3s-52,55.26-91.25,51.44S159,85.86,170.24,53.62,222.3-1.66,261.51,2.17Z"/><path class="cls-2" d="M250.94,7.79c34.71,0,57.12,23.76,50.07,53.06s-40.92,53.05-75.63,53.05-57.12-23.75-50.07-53.05S216.23,7.79,250.94,7.79Z"/><path class="cls-3" d="M257.1,9c34.71,0,57.13,23.75,50.06,53.07s-40.91,53-75.63,53-57.13-23.75-50.07-53S222.39,9,257.1,9Z"/><path class="cls-2" d="M241.51,92.25l4.18-19.51c1.11-5.13,2.61-11.64,4.39-18.45h-.21c-3,6.11-6.39,12.64-9.33,17.82l-11,19.37H221.7l-.4-19.15c-.06-5.2,0-11.72.16-18h-.14c-1.75,6.25-3.63,13.41-5.17,18.45l-6,19.51h-9.26l15-47.29h13.55l.26,18c0,4.42.11,9.82-.17,15.09h.28a165.17,165.17,0,0,1,7.39-15.09l10-18h13.67l-9.55,47.29Z"/><path class="cls-1" d="M260.41,111.43,268.21,70h-4.7l1.57-8.12h4.69l.38-1.93c.75-4.26,2.46-8.8,6.12-11.86a15.74,15.74,0,0,1,10.35-3.5,15.1,15.1,0,0,1,5.75.89l-1.86,8.58a8.37,8.37,0,0,0-3.5-.59c-3.44,0-5.6,3-6.27,6.63l-.37,1.78h7.24L286,70h-7.15L272,106.25l-1.78.81Z"/><path class="cls-1" d="M242.6,25.33s3.55-1.94,4.64-3.2,1.91-1.93,3.05-.87a14.48,14.48,0,0,0,9.9,4.22s2.26.29.34,1a13.34,13.34,0,0,1-6.82-.66s.32,1.05,4.45,1.54c0,0,2.46,0,0,.57s-4.82-.47-6.91-1.52c0,0,.69,1.25,3.77,2.2,0,0,1.36.68-.8.59A9.27,9.27,0,0,1,248.67,27a4.38,4.38,0,0,0,2,2c1.6.87-.14.68-.95.58a7.85,7.85,0,0,1-5.5-2.4s-1-1.06-1.85-1S242.6,25.33,242.6,25.33Z"/><path class="cls-1" d="M241.51,25.34s-2.73-1.92-3.29-3.18-1.1-1.93-2.69-.86a22.66,22.66,0,0,1-11.69,4.27s-2.39.3-.75,1c0,0,2.32.67,7.12-.69,0,0-.77,1.06-5.11,1.55,0,0-2.46,0-.26.58s5-.5,7.57-1.57c0,0-1.22,1.26-4.71,2.23,0,0-1.64.68.56.58A13.93,13.93,0,0,0,234.74,27a8.25,8.25,0,0,1-2.89,2c-2,.87-.14.67.69.58a11.65,11.65,0,0,0,6.53-2.43s1.45-1.06,2.25-1S241.51,25.34,241.51,25.34Z"/><polygon class="cls-1" points="241.89 21.57 234.03 61.48 234.57 61.48 243.92 21.66 241.89 21.57"/><path class="cls-1" d="M237.05,32.88s1.94-.78,1.81-2.13-3-.57-3.83,0-4,2.61-2.64,4.74,3.65,2.11,5.17,2.69,4,1.25,3.37,3.47-3.74,3.49-4.73,4.26-3.68,2.42-4.17,4.27c-.65,2.41,1.93,3.19,4.53,4.42s-.5,4.35-1.44,4.26c0,0-.87.87.29.57s5.1-2.82,2.68-4.92S233.64,51.64,234,50c.25-1.16,2.86-3.19,5.41-4.26a6.45,6.45,0,0,0,4-4.26c.28-1.35-.55-3-2.88-3.85-2.16-.77-5.59-1.34-5.46-2.59S236,33.27,237.05,32.88Z"/><path class="cls-1" d="M243.88,32.86s-1.62-.77-.92-2.11,3.26-.59,3.83,0,2.87,2.6.64,4.73-4.55,2.14-6.31,2.73-4.51,1.27-4.83,3.49,2.28,3.47,2.93,4.24,2.67,2.4,2.39,4.24c-.37,2.41-3.27,3.2-6.4,4.45s-1.32,4.36-.35,4.26c0,0,.51.87-.53.57s-3.92-2.79-.6-4.92,5.67-2.9,6-4.56c.25-1.15-1.51-3.19-3.62-4.24a3.79,3.79,0,0,1-2.24-4.24c.28-1.36,1.83-3,4.5-3.87,2.49-.79,6.16-1.37,6.56-2.63S244.76,33.26,243.88,32.86Z"/><path class="cls-1" d="M242.89,22.09a1.67,1.67,0,0,1-1.81-1.62,2,2,0,0,1,2.11-1.91,1.7,1.7,0,0,1,1.87,1.64,1.93,1.93,0,0,1-2.16,1.88Z"/><path class="cls-1" d="M334.22,180.19a2.79,2.79,0,0,0-2.16-1h-6.37a2.81,2.81,0,0,0-2.76,2.29l-.11.6a7.2,7.2,0,0,0-1.36-1.33,7.49,7.49,0,0,0-2.82-1.27,16.34,16.34,0,0,0-3.43-.29H312.1a2.81,2.81,0,0,0-2.76,2.29l-2.46,13.23a2.8,2.8,0,0,0,2.76,3.32h3.22a16.26,16.26,0,0,0,3.35-.29,11.13,11.13,0,0,0,2.87-1.06,10.41,10.41,0,0,0,1.42-.94,2.75,2.75,0,0,0,2.74,2.28h7.07a2.8,2.8,0,0,0,2.76-2.29l.3-1.63a2.71,2.71,0,0,0,0-.51,2.8,2.8,0,0,0-.65-1.79,2.35,2.35,0,0,0-.5-.44,2.72,2.72,0,0,0,1.14-1.74l.3-1.63a2.75,2.75,0,0,0-.41-2,2.8,2.8,0,0,0,1.22-1.82l.3-1.63a2.68,2.68,0,0,0,0-.51A2.8,2.8,0,0,0,334.22,180.19Z"/><path class="cls-1" d="M441.77,181.42a7.54,7.54,0,0,0-5.74-2.47,9.25,9.25,0,0,0-4.58,1.18,2.8,2.8,0,0,0-2.09-.95h-9.7a2.76,2.76,0,0,0-.88.16,2.72,2.72,0,0,0-.86-.16h-2a2.8,2.8,0,0,0-2.76,2.31l-.28,1.54-1.26-2.37a2.81,2.81,0,0,0-2.47-1.47h-1.72a2.7,2.7,0,0,1-3.25,0h-6.37a2.75,2.75,0,0,1-3.57,0h-2.13a2.8,2.8,0,0,0-2.57,1.69,2.74,2.74,0,0,0-2.56-1.69h-2.38a2.78,2.78,0,0,0-1.9.76,8.79,8.79,0,0,0-4.06-1,10.07,10.07,0,0,0-6.45,2.22,2.68,2.68,0,0,0-.59-.65,7.57,7.57,0,0,0-4.66-1.57,7.37,7.37,0,0,0-4.1,1.18,2.78,2.78,0,0,0-2.09-1h-6.37a2.81,2.81,0,0,0-2.76,2.29l-.11.6a7.18,7.18,0,0,0-1.36-1.33,7.5,7.5,0,0,0-2.82-1.27,16.34,16.34,0,0,0-3.43-.29h-3.12a2.81,2.81,0,0,0-2.76,2.29l-2.46,13.23a2.8,2.8,0,0,0,2.76,3.32h3.21a16.28,16.28,0,0,0,3.36-.29,11.15,11.15,0,0,0,2.87-1.06,10.24,10.24,0,0,0,1.41-.93,2.75,2.75,0,0,0,.59,1.27,2.8,2.8,0,0,0,2.16,1h7.07a2.77,2.77,0,0,0,1.66-.57,8.08,8.08,0,0,0,3.56.8,7.56,7.56,0,0,0,5-1.73,6.27,6.27,0,0,0,1.12-1.28,8.35,8.35,0,0,0,.78.81,8.84,8.84,0,0,0,6.06,2.2,11.25,11.25,0,0,0,4.35-.88,2.81,2.81,0,0,0,.84-.58,7.28,7.28,0,0,0,4.62,1.46,8.1,8.1,0,0,0,5.67-2.15,2.72,2.72,0,0,0,.5.91,2.79,2.79,0,0,0,2.16,1h7.07a2.68,2.68,0,0,1,2.53,0H407a2.8,2.8,0,0,0,2.76-2.31l.27-1.5,1.28,2.37a2.81,2.81,0,0,0,2.45,1.45h1.72a2.8,2.8,0,0,0,2.7-2.07,2.71,2.71,0,0,0,.54,1.06,2.79,2.79,0,0,0,2.15,1h2.38a2.81,2.81,0,0,0,2.76-2.29l.55-2.94a8.49,8.49,0,0,0,1.49,2.72,7.65,7.65,0,0,0,6.13,2.74,9,9,0,0,0,6.86-3.13,11.21,11.21,0,0,0,2.88-7.77A8.53,8.53,0,0,0,441.77,181.42Z"/><path class="cls-4" d="M346.85,190.63a6,6,0,0,0,.86-3.17,3.6,3.6,0,0,0-1.39-3.19,4.61,4.61,0,0,0-2.54-.55h-.87l-1.79,9.72h.75a5.68,5.68,0,0,0,1.55-.18,6.89,6.89,0,0,0,1.11-.49A5.72,5.72,0,0,0,346.85,190.63Z"/><path class="cls-4" d="M318.2,190.63a6,6,0,0,0,.86-3.17,3.6,3.6,0,0,0-1.39-3.19,4.62,4.62,0,0,0-2.54-.55h-.87l-1.79,9.72h.75a5.68,5.68,0,0,0,1.56-.18,7,7,0,0,0,1.11-.49A5.72,5.72,0,0,0,318.2,190.63Z"/><path class="cls-4" d="M437.72,184.66a2.39,2.39,0,0,0-2-.92,3.62,3.62,0,0,0-3,1.62,6.67,6.67,0,0,0-1.21,4.07,5,5,0,0,0,.78,3,2.5,2.5,0,0,0,2.16,1,3.38,3.38,0,0,0,3-1.87,8.24,8.24,0,0,0,1-4.25A4.31,4.31,0,0,0,437.72,184.66Z"/><path class="cls-3" d="M319.86,182.89a4.79,4.79,0,0,0-1.8-.8,14.13,14.13,0,0,0-2.84-.22H312l0,.09-2.46,13.23,0,.14h3.36a13.94,13.94,0,0,0,2.79-.23,8.47,8.47,0,0,0,2.18-.8,7.43,7.43,0,0,0,3-2.83,8,8,0,0,0,1.06-4.08A5.26,5.26,0,0,0,319.86,182.89Zm-6.63,10.56h-.75l1.79-9.72h.87a4.62,4.62,0,0,1,2.54.55,3.6,3.6,0,0,1,1.39,3.19,6,6,0,0,1-.86,3.17,5.72,5.72,0,0,1-2.31,2.15,7,7,0,0,1-1.11.49A5.68,5.68,0,0,1,313.23,193.45Z"/><polygon class="cls-3" points="325.69 181.87 325.59 181.87 325.58 181.96 323.12 195.19 323.09 195.33 323.23 195.33 330.3 195.33 330.4 195.33 330.42 195.23 330.72 193.6 330.75 193.47 330.61 193.47 326.06 193.47 326.87 189.21 330.64 189.21 330.74 189.21 330.76 189.12 331.06 187.49 331.09 187.35 330.95 187.35 327.21 187.35 327.87 183.73 331.76 183.73 331.86 183.73 331.88 183.63 332.18 182 332.2 181.87 332.06 181.87 325.69 181.87"/><path class="cls-3" d="M348.51,182.89a4.8,4.8,0,0,0-1.8-.8,14.12,14.12,0,0,0-2.84-.22h-3.22l0,.09-2.46,13.23,0,.14h3.35a13.93,13.93,0,0,0,2.79-.23,8.44,8.44,0,0,0,2.18-.8,7.43,7.43,0,0,0,3-2.83,8,8,0,0,0,1.05-4.08A5.26,5.26,0,0,0,348.51,182.89Zm-6.63,10.56h-.75l1.79-9.72h.87a4.61,4.61,0,0,1,2.54.55,3.6,3.6,0,0,1,1.39,3.19,6,6,0,0,1-.86,3.17,5.72,5.72,0,0,1-2.31,2.15,6.89,6.89,0,0,1-1.11.49A5.68,5.68,0,0,1,341.88,193.45Z"/><polygon class="cls-3" points="360.85 181.87 360.71 181.87 354.34 181.87 354.24 181.87 354.22 181.96 351.76 195.19 351.74 195.33 351.88 195.33 358.95 195.33 359.05 195.33 359.06 195.23 359.37 193.6 359.39 193.47 359.25 193.47 354.7 193.47 355.51 189.21 359.29 189.21 359.39 189.21 359.4 189.12 359.71 187.49 359.73 187.35 359.59 187.35 355.85 187.35 356.51 183.73 360.4 183.73 360.5 183.73 360.52 183.63 360.82 182 360.85 181.87"/><path class="cls-3" d="M366.9,181.63a4.65,4.65,0,0,0-3,1,3.17,3.17,0,0,0-1.21,2.55,5,5,0,0,0,1.29,3l1.28,1.6a3.62,3.62,0,0,1,.83,2,1.77,1.77,0,0,1-.57,1.35,2.05,2.05,0,0,1-1.45.54,3.82,3.82,0,0,1-2.29-1l-.1-.08-.07.1-1,1.42-.06.08.08.07a5.1,5.1,0,0,0,3.56,1.3,5,5,0,0,0,3.31-1.09,3.59,3.59,0,0,0,1.29-2.87,4.73,4.73,0,0,0-1.31-3c-.65-.79-1-1.22-1.09-1.37a4.51,4.51,0,0,1-1-2.09,1.51,1.51,0,0,1,.48-1.17,1.86,1.86,0,0,1,1.31-.45,3,3,0,0,1,1.64.6l.09.06.07-.08,1-1.25.08-.09-.1-.07A5,5,0,0,0,366.9,181.63Z"/><path class="cls-3" d="M378.6,181.63a7.48,7.48,0,0,0-5.45,2.21,7.36,7.36,0,0,0-2.23,5.41,6.07,6.07,0,0,0,2,4.78,6.24,6.24,0,0,0,4.27,1.52,8.58,8.58,0,0,0,3.32-.67l.1,0,0-.1-.51-1.63,0-.12-.11,0a6.54,6.54,0,0,1-2.19.41,3.75,3.75,0,0,1-2.89-1.19,4.57,4.57,0,0,1-1.1-3.2,5.43,5.43,0,0,1,1.4-3.83,4.74,4.74,0,0,1,3.63-1.51,5.69,5.69,0,0,1,2.26.52l.09,0,.06-.08,1-1.38.07-.1-.1-.07A6.11,6.11,0,0,0,378.6,181.63Z"/><path class="cls-3" d="M392.06,181.87H392l0,.09-1.32,7.2a10.44,10.44,0,0,1-.78,2.68,2.6,2.6,0,0,1-2.51,1.62,1.85,1.85,0,0,1-1.39-.52,1.93,1.93,0,0,1-.51-1.42,15.85,15.85,0,0,1,.32-2.46L387,182l0-.14h-2.62l0,.09-1.27,6.86a19.56,19.56,0,0,0-.4,3.12,3.32,3.32,0,0,0,1.14,2.65,4.62,4.62,0,0,0,3.08,1,5.37,5.37,0,0,0,4.17-1.76,5.66,5.66,0,0,0,1.06-1.69,15.65,15.65,0,0,0,.71-2.75l1.38-7.35,0-.14h-2.27Z"/><polygon class="cls-3" points="397.77 181.87 397.67 181.87 397.65 181.96 395.19 195.19 395.17 195.33 395.31 195.33 402.38 195.33 402.48 195.33 402.5 195.23 402.8 193.6 402.82 193.47 402.68 193.47 398.13 193.47 398.94 189.21 402.72 189.21 402.82 189.21 402.83 189.12 403.14 187.49 403.16 187.35 403.02 187.35 399.29 187.35 399.94 183.73 403.84 183.73 403.93 183.73 403.95 183.63 404.25 182 404.28 181.87 404.14 181.87 397.77 181.87"/><path class="cls-3" d="M415.88,181.87h-.1l0,.09-1.7,9.38c-1-2-2.58-5.19-4.86-9.41l0-.06h-1.89l0,.09-2.48,13.23,0,.14h2.3l0-.1,1.67-9.38c1.13,2.43,2.76,5.59,4.88,9.41l0,.06h1.89l0-.09L418,182l0-.14h-2.18Z"/><polygon class="cls-3" points="429.08 183.73 429.17 183.73 429.19 183.63 429.47 182 429.5 181.87 429.36 181.87 419.66 181.87 419.56 181.87 419.55 181.96 419.24 183.59 419.22 183.73 419.36 183.73 422.85 183.73 420.74 195.19 420.71 195.33 420.85 195.33 423.23 195.33 423.33 195.33 423.35 195.23 425.49 183.73 429.08 183.73"/><path class="cls-3" d="M439.78,183.22a4.85,4.85,0,0,0-3.75-1.59,6.57,6.57,0,0,0-4.52,1.71,8.3,8.3,0,0,0-2,2.87,8.54,8.54,0,0,0-.77,3.46,6.28,6.28,0,0,0,1.39,4.12,5,5,0,0,0,4.06,1.76,6.38,6.38,0,0,0,4.87-2.25,8.59,8.59,0,0,0,2.19-6A5.93,5.93,0,0,0,439.78,183.22Zm-5.35,10.23a2.5,2.5,0,0,1-2.16-1,5,5,0,0,1-.78-3,6.67,6.67,0,0,1,1.21-4.07,3.62,3.62,0,0,1,3-1.62,2.39,2.39,0,0,1,2,.92,4.31,4.31,0,0,1,.72,2.67,8.24,8.24,0,0,1-1,4.25A3.38,3.38,0,0,1,434.43,193.46Z"/><path class="cls-1" d="M462.68,161.49a7.76,7.76,0,0,0-5.59-2.31,7.85,7.85,0,0,0-3.49.81c0-.16,0-.32,0-.47a10.68,10.68,0,0,0-2.2-6.47,13.89,13.89,0,0,0-2.09-2.2c-.27-.23-.54-.43-.81-.64A3.7,3.7,0,0,0,453,147.8l2.07-6.23a3.72,3.72,0,0,0-1.65-4.38c-2.21-1.29-5.7-2-9.56-2-6,0-11,2.09-13.93,5.71a3.73,3.73,0,0,0,.05-.53,3.69,3.69,0,0,0-2.59-3.54,38.94,38.94,0,0,0-11-1.64c-9.43,0-17,3.94-21.3,11l1.12-5.88a3.69,3.69,0,0,0-.77-3,8.53,8.53,0,0,0,2.73-6.33,7.82,7.82,0,0,0-8.11-8,8.74,8.74,0,0,0-8.78,8.64v.08a8.08,8.08,0,0,0,1.31,4.5,3.72,3.72,0,0,0-1.91,1.46,3.71,3.71,0,0,0-1.53-1.12,21.34,21.34,0,0,0-7.36-1.22c-8.24,0-15.37,3.78-19.5,10.07l.84-4.16a3.7,3.7,0,0,0-2.51-4.27,38.94,38.94,0,0,0-11-1.64c-9.91,0-15.79,4.28-19,7.88a23.08,23.08,0,0,0-2.91,4.14c0-.1,0-.22,0-.31,0-7.11-4.33-11.71-11-11.71a15.5,15.5,0,0,0-9.32,3.11,10.76,10.76,0,0,0-8-3.11,15.54,15.54,0,0,0-7.2,1.73,3.72,3.72,0,0,0-2.57-1.06H272a3.7,3.7,0,0,0-1.88.52,3.69,3.69,0,0,0-2.22-1.1,17.56,17.56,0,0,0-2.07-.09,12.56,12.56,0,0,0-6.48,1.82,3.7,3.7,0,0,0-2.68-1.15H249a3.68,3.68,0,0,0-3.64,3,3.68,3.68,0,0,0-2.26-2,38.9,38.9,0,0,0-11-1.64c-6.72,0-12.52,2-16.89,5.77l.13-.69a4.08,4.08,0,0,0,.06-.7,3.72,3.72,0,0,0-.85-2.36,3.54,3.54,0,0,0-.35-.35,3.67,3.67,0,0,0,3.49-2.91l1.53-7a3.72,3.72,0,0,0-2.14-4.19,16,16,0,0,0-6.19-1,16.56,16.56,0,0,0-10.9,3.76,18.65,18.65,0,0,0-5.92,10.41h-2.91a3.72,3.72,0,0,0-1,.14,13.79,13.79,0,0,0,1-5,12.75,12.75,0,0,0-13.07-13,13.74,13.74,0,0,0-11.61,6.37,8.55,8.55,0,0,0-7.07-1.17l-5.15,1.43a8.53,8.53,0,0,0-8.48-7.11h-8.79a8.68,8.68,0,0,0-8.51,7L127.19,131l-.32,0h-8.79a8.42,8.42,0,0,0-4.67,1.42,8.59,8.59,0,0,0-4.74-1.42h-7.12l.2-1.47a8.91,8.91,0,0,0,.08-1.16,8.67,8.67,0,0,0-8.67-8.67H81.24a8.72,8.72,0,0,0-7.74,4.78,8.75,8.75,0,0,0-7.71-4.78H54a8.66,8.66,0,0,0-8.41,6.56L35.26,167.36a8.67,8.67,0,0,0,8.41,10.78h8.06a8.62,8.62,0,0,0,5.5-2,8.4,8.4,0,0,0,4.52,1.34h6.84A8.58,8.58,0,0,0,73.38,176,8.61,8.61,0,0,0,79,178.14h8.55a8.64,8.64,0,0,0,6.06-2.53,16.46,16.46,0,0,0,10.13,3.2,19.65,19.65,0,0,0,6.88-1.32,7.87,7.87,0,0,0,3,.65h7.76a8.45,8.45,0,0,0,3.62-.84,8.37,8.37,0,0,0,3.59.84h8.79a8.55,8.55,0,0,0,6.5-3,17.22,17.22,0,0,0,11.15,3.67,25.94,25.94,0,0,0,8.15-1.19,8.42,8.42,0,0,0,2.84.52h8.8a8.68,8.68,0,0,0,8.52-7.05l.2-1.07h4.24a3.7,3.7,0,0,0,3.66,3.11h8.73a3.71,3.71,0,0,0,3.65-3V170h6.89a12.19,12.19,0,0,0,9,3.76,13.75,13.75,0,0,0,7-1.9l.07.09a3.73,3.73,0,0,0,2.67,1.13h8.12a3.61,3.61,0,0,0,3.23-1.92,3.54,3.54,0,0,0,.39.57,3.69,3.69,0,0,0,2.86,1.34h8.8a3.71,3.71,0,0,0,3.64-3V170h6.5a3.69,3.69,0,0,0,3.65,3.09h8.49a3.7,3.7,0,0,0,3.65-3v0h1.67a3.75,3.75,0,0,0,.8,1.75,3.69,3.69,0,0,0,2.85,1.34h8.49a3.71,3.71,0,0,0,3.65-3V170h1.72a3.7,3.7,0,0,0,3.66,3.09h8.49a3.71,3.71,0,0,0,3.65-3V170h4.39a12.19,12.19,0,0,0,9,3.76,13.74,13.74,0,0,0,7-1.9l.07.09a3.74,3.74,0,0,0,2.67,1.14h8.12a3.74,3.74,0,0,0,2.67-1.13,3.67,3.67,0,0,0,1-2h5a16.71,16.71,0,0,0,11.06,3.76,24.3,24.3,0,0,0,10.1-2l.2-.11,0,0a3.71,3.71,0,0,0,2.86,1.35h8.79a3.72,3.72,0,0,0,3.65-3V170H395a12.18,12.18,0,0,0,9,3.76,13.73,13.73,0,0,0,7-1.9l.07.09a3.72,3.72,0,0,0,2.67,1.13h8.12A3.72,3.72,0,0,0,424.6,172a3.66,3.66,0,0,0,.69-1c2.46,1.63,6.43,2.68,10.82,2.83h.09c5.47,0,10.16-1.56,13.29-4.5a7.91,7.91,0,1,0,13.19-7.81Z"/><path class="cls-3" d="M187.56,130.93a9.27,9.27,0,0,0-9.51-9.44,10.13,10.13,0,0,0-10.18,10,10.23,10.23,0,0,0,.58,3.41,5,5,0,0,0-1.95-.41h-.2l.39-2.07a5.11,5.11,0,0,0-6.38-5.87l-9,2.51a5.09,5.09,0,0,0-1,.4l.46-2.4a5.11,5.11,0,0,0-5-6.07h-8.79a5.11,5.11,0,0,0-5,4.14l-2,10.39a5.09,5.09,0,0,0-3.07-1h-8.79a5.05,5.05,0,0,0-4.68,3.25,5,5,0,0,0-.8-1.4,5.09,5.09,0,0,0-3.93-1.84H99.87a5.11,5.11,0,0,0-2.5.65l.83-6.17a5.11,5.11,0,0,0-5.06-5.79H81.24a5.1,5.1,0,0,0-4.59,2.87l-5.07,10.39-.7-8.57a5.11,5.11,0,0,0-5.09-4.69H54a5.1,5.1,0,0,0-5,3.87L38.72,168.23a5.11,5.11,0,0,0,5,6.35h8.06a5.11,5.11,0,0,0,5-3.91l.17-.7a5,5,0,0,0,4.89,3.94h6.84a5.1,5.1,0,0,0,4.57-2.82l.78-1.56a5.1,5.1,0,0,0,5.1,5.05h8.55a5.11,5.11,0,0,0,5.06-4.42l.12-.89c2.07,3.8,5.91,6,11,6a16.63,16.63,0,0,0,7.07-1.66,5,5,0,0,0,2.83,1h7.76a5.09,5.09,0,0,0,3.62-1.51,5.09,5.09,0,0,0,3.59,1.51h8.79a5.11,5.11,0,0,0,5-4.15l.5-2.62c1.51,4.11,5.42,7.44,12.14,7.44a22.37,22.37,0,0,0,7-1,4.9,4.9,0,0,0,1.06-.57,5.09,5.09,0,0,0,2.89.92h8.8a5.1,5.1,0,0,0,5-4.15l5.68-29.86a5.09,5.09,0,0,0-.39-3.07A9.94,9.94,0,0,0,187.56,130.93Z"/><path class="cls-1" d="M79,169.47l2.5-17c.67-4.46,1.59-10.14,2.75-16.06h-.18c-2.26,5.31-4.83,11-7.08,15.51L68.59,168.8H61.76l-1.47-16.67c-.36-4.52-.67-10.2-.92-15.7h-.12c-1.16,5.44-2.38,11.66-3.42,16.06l-4.1,17H43.67L54,128.3H65.79l1.28,15.64c.24,3.85.67,8.55.73,13.14H68a134.34,134.34,0,0,1,5.55-13.14l7.64-15.64H93.15l-5.56,41.17Z"/><path class="cls-1" d="M126.86,139.6,123,159.76c-.73,3.79-1.16,7-1.59,9.71h-7.76l.55-4.89h-.13c-3.05,3.91-6.72,5.56-10.32,5.56-4.77,0-7.63-2.69-7.63-8.37a26.94,26.94,0,0,1,.61-5.5l3.12-16.67h8.79l-3,16a23.94,23.94,0,0,0-.43,3.91c0,2,.74,3.48,3,3.48,3,0,6-3.6,7.2-9.59l2.63-13.8Z"/><path class="cls-1" d="M128.64,169.47l8.31-43.37h8.79l-8.3,43.37Z"/><path class="cls-1" d="M161.68,131.48l-1.53,8.13h6.35l-1.28,6.65h-6.35l-2,10.14a21.66,21.66,0,0,0-.48,3.78,2.2,2.2,0,0,0,2.51,2.51,16.47,16.47,0,0,0,2.44-.12l-1,6.9a17.15,17.15,0,0,1-5.19.67c-5.25,0-7.76-2.75-7.76-6.47a29.68,29.68,0,0,1,.61-5.56l2.32-11.85h-3.79l1.22-6.65h3.85l1.1-5.62Z"/><path class="cls-1" d="M166.08,169.47l5.68-29.86h8.79l-5.68,29.86Zm11.12-33.59A4.05,4.05,0,0,1,173,131.6a5,5,0,0,1,5.07-5,4.15,4.15,0,0,1,4.4,4.34,4.87,4.87,0,0,1-5.19,4.94Z"/><path class="cls-2" d="M191.5,169.41l4.33-23.21h-5.56l1.28-6.66h5.55l.31-1.59c.61-3.48,2-7.21,5-9.71a12.88,12.88,0,0,1,8.49-2.87,12.37,12.37,0,0,1,4.7.73l-1.53,7a6.76,6.76,0,0,0-2.87-.49c-2.81,0-4.58,2.44-5.13,5.44l-.31,1.47h5.93l-1.28,6.66h-5.86l-4.34,23.21Z"/><path class="cls-2" d="M229.55,169.41c.06-1.76.24-3.78.43-5.92h-.18c-2.75,4.94-6.53,6.59-10,6.59-5.37,0-9-4.15-9-10.38,0-10.08,6.65-20.83,21.38-20.83a35.44,35.44,0,0,1,9.89,1.47L238.83,156a71.73,71.73,0,0,0-1.16,13.43Zm2.57-23.63a13.68,13.68,0,0,0-2.38-.24c-5.68,0-9.84,7-9.84,12.52,0,2.93,1.16,4.95,3.6,4.95,2.63,0,5.86-3,7.21-10.32Z"/><path class="cls-2" d="M244.14,169.41l3.36-17.77c.85-4.52,1.22-9.53,1.53-12.09h7.63c-.18,2-.37,4-.55,6.11h.18c2.08-4,5.44-6.78,9.53-6.78a14.3,14.3,0,0,1,1.65.06l-1.71,8.55c-.43,0-.92-.06-1.4-.06-5.62,0-8.25,5-9.35,10.87l-2.08,11.11Z"/><path class="cls-2" d="M266.74,169.41l3.73-20.15c.67-3.78,1.16-7.08,1.53-9.71h7.58l-.55,4.82h.12a12.08,12.08,0,0,1,10.2-5.5c4.76,0,6.84,3,7.08,5.62a12.3,12.3,0,0,1,10.26-5.62c4.64,0,7.33,2.93,7.33,8a31.78,31.78,0,0,1-.55,5.13l-3.24,17.41h-8.49l3-16.31a19.2,19.2,0,0,0,.42-3.66c0-2.08-.91-3.55-3-3.55-2.93,0-5.81,4-7,10l-2.5,13.56h-8.49L287.27,153a18.22,18.22,0,0,0,.42-3.42c0-2-.67-3.66-2.8-3.66-3,0-6.11,4.22-7.21,10.08l-2.44,13.43Z"/><path class="cls-2" d="M337,169.41c.06-1.76.24-3.78.43-5.92h-.19c-2.74,4.94-6.53,6.59-10,6.59-5.37,0-9-4.15-9-10.38,0-10.08,6.66-20.83,21.38-20.83a35.44,35.44,0,0,1,9.89,1.47L346.33,156a72.41,72.41,0,0,0-1.16,13.43Zm2.57-23.63a13.69,13.69,0,0,0-2.38-.24c-5.68,0-9.84,7-9.84,12.52,0,2.93,1.16,4.95,3.6,4.95,2.63,0,5.86-3,7.21-10.32Z"/><path class="cls-2" d="M373.38,168.49a20.62,20.62,0,0,1-8.49,1.59c-7.39,0-12.58-4.52-12.58-12.27,0-10.63,8.12-18.94,19.48-18.94a18.09,18.09,0,0,1,6.05,1l-2.14,6.78a10.05,10.05,0,0,0-4-.73c-6.29,0-10.14,5.31-10.14,10.93,0,4.1,2.56,6.18,5.87,6.18a15.07,15.07,0,0,0,5.92-1.22Z"/><path class="cls-2" d="M378.08,169.41l5.68-29.86h8.8l-5.68,29.86Zm11.11-33.59a4.06,4.06,0,0,1-4.21-4.28,5,5,0,0,1,5.07-5,4.15,4.15,0,0,1,4.4,4.34,4.87,4.87,0,0,1-5.19,4.95Z"/><path class="cls-2" d="M413.81,169.41c.06-1.76.25-3.78.43-5.92h-.19c-2.75,4.94-6.54,6.59-10,6.59-5.37,0-9-4.15-9-10.38,0-10.08,6.66-20.83,21.38-20.83a35.48,35.48,0,0,1,9.9,1.47L423.1,156a71.94,71.94,0,0,0-1.16,13.43Zm2.57-23.63a13.64,13.64,0,0,0-2.38-.24c-5.68,0-9.83,7-9.83,12.52,0,2.93,1.16,4.95,3.6,4.95,2.63,0,5.86-3,7.21-10.32Z"/><path class="cls-2" d="M429.2,161.53A19.5,19.5,0,0,0,437,163.6c2.5,0,3.79-1.22,3.79-2.68s-1-2.5-3.72-3.85c-3.48-1.71-6.35-4.22-6.35-7.94,0-6.17,5.44-10.26,13.13-10.26a16.38,16.38,0,0,1,7.7,1.53l-2.08,6.23a14,14,0,0,0-6-1.34c-2.32,0-3.91,1-3.91,2.63,0,1.22,1.22,2.26,3.66,3.42,3.24,1.64,6.66,4,6.66,8.18,0,6.84-5.8,10.63-13.68,10.56-3.79-.12-7.39-1-9.16-2.38Z"/><path class="cls-3" d="M460.6,170.57a4.9,4.9,0,0,1-8.36-3.53,4.71,4.71,0,0,1,1.53-3.58,4.82,4.82,0,0,1,3.39-1.33,4.93,4.93,0,0,1,3.45,8.44Zm-6.34-6.37a4.08,4.08,0,0,0,2.89,6.94,3.89,3.89,0,0,0,2.87-1.21A4,4,0,0,0,461.2,167a3.91,3.91,0,0,0-1.18-2.84,4,4,0,0,0-5.76,0Zm.74,5.59v-5.47h2.64a2.64,2.64,0,0,1,1.07.28,1.37,1.37,0,0,1,.73,1.3,1.21,1.21,0,0,1-.38,1,1.76,1.76,0,0,1-.94.36,1.93,1.93,0,0,1,.77.32,1.5,1.5,0,0,1,.47,1.22v.48a.75.75,0,0,0,0,.16.66.66,0,0,0,0,.15l.05.17h-1.36a5.91,5.91,0,0,1-.1-.77,3,3,0,0,0-.08-.66.69.69,0,0,0-.42-.4,1.47,1.47,0,0,0-.49-.09h-.62v1.94Zm2.61-4.39a2.41,2.41,0,0,0-.83-.11h-.35v1.58H457a1.31,1.31,0,0,0,.78-.2.73.73,0,0,0,.28-.65A.62.62,0,0,0,457.61,165.41Z"/></svg>