<?xml version="1.0" encoding="utf-8"?>
<!-- Generator: Adobe Illustrator 21.0.2, SVG Export Plug-In . SVG Version: 6.00 Build 0)  -->
<svg version="1.1" id="Capa_1" xmlns="http://www.w3.org/2000/svg" xmlns:xlink="http://www.w3.org/1999/xlink" x="0px" y="0px"
	 viewBox="0 0 20 20" style="enable-background:new 0 0 20 20;" xml:space="preserve">
<style type="text/css">
	.st0{fill:#004A9B;}
</style>
<title>azulblanco</title>
<path class="st0" d="M7.7,17.5c1.6,1.6,4.2,1.6,5.8,0l5.3-5.3c1.6-1.6,1.6-4.2,0-5.8C18,5.7,17,5.3,15.9,5.3l0,0
	c-1.1,0-2.1,0.4-2.9,1.2l-5.3,5.3C6.1,13.3,6.1,15.9,7.7,17.5z M13.5,6.9c0.6-0.6,1.5-1,2.4-1l0,0c1.9,0,3.4,1.5,3.4,3.4
	c0,0.9-0.4,1.8-1,2.4l-2.4,2.4l-4.8-4.8L13.5,6.9z M10.6,9.8l4.8,4.8L13,17.1c-1.3,1.3-3.5,1.3-4.8,0s-1.3-3.5,0-4.8l0,0L10.6,9.8z
	 M1.3,8.8L1.3,8.8c1.7,1.7,4.5,1.7,6.3,0s1.7-4.5,0-6.3l0,0l0,0C5.8,0.8,3,0.8,1.3,2.5S-0.4,7,1.3,8.8L1.3,8.8z M8.1,5.7
	c0,2.1-1.6,3.7-3.7,3.8C3.5,9.4,2.7,9.1,2,8.5l5.3-5.2C7.8,3.9,8.2,4.8,8.1,5.7z M4.4,1.9c0.9,0,1.7,0.3,2.4,0.9L1.5,8.1
	C0.2,6.5,0.5,4.1,2,2.8C2.7,2.2,3.6,1.9,4.4,1.9z"/>
</svg>
