<?xml version="1.0" encoding="utf-8"?>
<!-- Generator: Adobe Illustrator 21.0.2, SVG Export Plug-In . SVG Version: 6.00 Build 0)  -->
<svg version="1.1" id="Capa_1" xmlns="http://www.w3.org/2000/svg" xmlns:xlink="http://www.w3.org/1999/xlink" x="0px" y="0px"
	 viewBox="0 0 50 50" style="enable-background:new 0 0 50 50;" xml:space="preserve">
<style type="text/css">
	.st0{fill:#004B97;}
	.st1{fill:#FFFFFF;}
</style>
<title>azulblanco</title>
<circle class="st0" cx="25" cy="25" r="25"/>
<path class="st1" d="M35.2,24.4c-2.2-0.1-4.1,1.5-4.3,3.7c-0.1,2.2,1.5,4.1,3.7,4.3c-0.3,3.5-3.3,6.1-6.8,5.8C24.6,38,22,35.3,22,32
	l0,0v-2.9c4.9-0.3,8.7-4.3,8.7-9.2V15c0-1.8-1.4-3.4-3.2-3.6c-0.3-0.9-1.2-1.4-2.1-1.1s-1.4,1.2-1.1,2.1s1.2,1.4,2.1,1.1
	c0.5-0.2,0.9-0.6,1.1-1.1c1.3,0.2,2.2,1.3,2.2,2.6v4.9c0,4.5-3.7,8.2-8.2,8.2s-8.2-3.7-8.2-8.2V15c0-1.3,1-2.4,2.3-2.6
	c0.3,0.9,1.2,1.4,2.1,1.1s1.4-1.2,1.1-2.1s-1.2-1.4-2.1-1.1c-0.5,0.2-0.9,0.6-1.1,1.1c-1.8,0.2-3.2,1.8-3.2,3.6v4.9
	c0,4.9,3.8,8.9,8.7,9.2V32l0,0c0,4,3.2,7.3,7.2,7.4c3.9,0,7.2-3,7.4-6.9c2.2-0.1,3.9-2,3.8-4.3C39.3,26,37.4,24.3,35.2,24.4
	L35.2,24.4z M25.9,12.5c-0.4,0-0.7-0.3-0.7-0.7s0.3-0.7,0.7-0.7c0.4,0,0.7,0.3,0.7,0.7v0C26.6,12.2,26.3,12.5,25.9,12.5
	C25.9,12.5,25.9,12.5,25.9,12.5L25.9,12.5z M17.2,11.1c0.4,0,0.7,0.3,0.7,0.7s-0.3,0.7-0.7,0.7c-0.4,0-0.7-0.3-0.7-0.7v0
	C16.5,11.4,16.8,11.1,17.2,11.1L17.2,11.1z M35.2,31.5L35.2,31.5c-1.7,0-3.1-1.4-3.1-3.1c0-1.7,1.4-3.1,3.1-3.1
	c1.7,0,3.1,1.4,3.1,3.1C38.2,30.1,36.9,31.5,35.2,31.5C35.2,31.5,35.2,31.5,35.2,31.5L35.2,31.5z M35.2,27.5c-0.5,0-0.9,0.4-0.9,0.9
	s0.4,0.9,0.9,0.9s0.9-0.4,0.9-0.9l0,0C36.1,27.9,35.7,27.5,35.2,27.5L35.2,27.5z"/>
</svg>
