<?xml version="1.0" encoding="utf-8"?>
<!-- Generator: Adobe Illustrator 21.0.2, SVG Export Plug-In . SVG Version: 6.00 Build 0)  -->
<svg version="1.1" id="Capa_1" xmlns="http://www.w3.org/2000/svg" xmlns:xlink="http://www.w3.org/1999/xlink" x="0px" y="0px"
	 viewBox="0 0 20 20" style="enable-background:new 0 0 20 20;" xml:space="preserve">
<style type="text/css">
	.st0{fill:#004B97;}
</style>
<title>azulblanco</title>
<path class="st0" d="M19.8,10.5C19,10.2,18,10,17.1,10c0.3-1.5,0.1-3.1-0.5-4.6c-0.1-0.1-0.2-0.2-0.3-0.2C15.1,5.4,14,5.7,13,6.3
	c-0.5-1.5-1.5-2.7-2.8-3.6c-0.1-0.1-0.3-0.1-0.4,0C8.6,3.6,7.6,4.9,7,6.3c-1-0.6-2.1-1-3.3-1.1c-0.1,0-0.3,0.1-0.3,0.2
	C2.8,6.8,2.6,8.5,2.9,10C2,10,1,10.2,0.2,10.6C0.1,10.6,0,10.8,0,10.9c0.3,2.3,1.6,4.3,3.6,5.4c1.2,0.7,2.5,1,3.8,1
	c0.9,0,1.8-0.2,2.6-0.5c0.8,0.4,1.7,0.5,2.6,0.5c1.3,0,2.6-0.3,3.8-1c2-1.1,3.4-3.1,3.6-5.5C20,10.7,19.9,10.6,19.8,10.5z M16.1,5.9
	c0.5,1.3,0.7,2.7,0.3,4.1c-1,0.1-2,0.4-2.9,0.9c0-0.4,0.1-0.8,0.1-1.1c0-0.9-0.1-1.9-0.4-2.7C14.1,6.4,15,6,16.1,5.9z M10,3.4
	c1.9,1.5,3,3.9,2.9,6.3c0,2.4-1,4.8-2.9,6.3c-1.9-1.5-3-3.9-2.9-6.3C7,7.3,8.1,4.9,10,3.4z M3.9,5.9C5,6,5.9,6.4,6.8,7
	c-0.4,1.3-0.5,2.6-0.3,3.9c-0.9-0.5-1.9-0.8-2.9-0.9C3.3,8.6,3.4,7.2,3.9,5.9z M3.9,15.7C2.2,14.7,1,13,0.7,11
	c1.9-0.7,4-0.5,5.7,0.5l0.2,0.2c0.4,1.8,1.3,3.4,2.7,4.6C7.6,16.9,5.6,16.7,3.9,15.7L3.9,15.7z M16,15.7c-1.6,1-3.6,1.2-5.4,0.6
	c1.4-1.2,2.4-2.8,2.7-4.6l0.2-0.1c1.7-1.1,3.8-1.3,5.7-0.6C19,13,17.8,14.7,16,15.7L16,15.7z"/>
</svg>
