<?xml version="1.0" encoding="utf-8"?>
<!-- Generator: Adobe Illustrator 21.0.2, SVG Export Plug-In . SVG Version: 6.00 Build 0)  -->
<svg version="1.1" id="Capa_1" xmlns="http://www.w3.org/2000/svg" xmlns:xlink="http://www.w3.org/1999/xlink" x="0px" y="0px"
	 viewBox="0 0 50 50" style="enable-background:new 0 0 50 50;" xml:space="preserve">
<style type="text/css">
	.st0{fill:#004B97;}
	.st1{fill:#FFFFFF;}
</style>
<title>azulblanco</title>
<circle class="st0" cx="25" cy="25" r="25"/>
<path class="st1" d="M30.9,15.2c-2.4,0-3,2.7-3.1,3.8c-0.7-0.1-1.2-0.6-1.2-1v-3.5c0.1-0.3-0.1-0.5-0.4-0.6
	c-0.3-0.1-0.5,0.1-0.6,0.4c0,0.1,0,0.1,0,0.2v3.5c0.1,1.1,0.9,1.9,2,2.1c0,0.3-0.1,0.7-0.1,1c-0.8-0.1-1.5-0.5-2.1-1
	c-0.2-0.2-0.5-0.2-0.7,0c-0.6,0.5-1.3,0.9-2.1,1c0-0.4,0-0.7-0.1-1c1.1-0.1,1.9-1,2-2.1v-3.5c0.1-0.3-0.1-0.5-0.4-0.6
	c-0.3-0.1-0.5,0.1-0.6,0.4c0,0.1,0,0.1,0,0.2v3.5c0,0.5-0.5,0.9-1.2,1c-0.2-1.1-0.8-3.8-3.1-3.8c-4.7,0-9.7,9.2-9.7,15.6
	c0,2.3,0.4,5.3,3.6,5.3c0.7,0,1.5-0.1,2.2-0.4c2.4-0.7,7.4-2.2,7.4-7.3v-0.3c0-2.3,0-4.4-0.1-6.2c0.9-0.1,1.7-0.5,2.4-1
	c0.7,0.5,1.5,0.9,2.4,1c-0.1,1.8-0.1,3.9-0.1,6.2v0.3c0,5.1,5,6.6,7.4,7.3c0.7,0.2,1.4,0.3,2.2,0.4l0,0c1.2,0.1,2.3-0.5,2.9-1.5
	c0.6-1.2,0.9-2.5,0.8-3.8C40.6,24.4,35.5,15.2,30.9,15.2z M21.7,28.5c0,3.8-3.2,5.3-6.7,6.3c-0.6,0.2-1.3,0.3-1.9,0.3
	c-1.3,0-2.6-0.5-2.6-4.3c0-5.8,4.6-14.6,8.7-14.6c0.8,0,1.7,0.4,2.2,3.1c0.3,3,0.5,5.9,0.4,8.9L21.7,28.5L21.7,28.5z M38.9,34.1
	c-0.4,0.7-1.2,1.1-2,1l0,0c-0.7,0-1.3-0.1-1.9-0.3c-3.5-1-6.7-2.5-6.7-6.3v-0.3c-0.1-3,0-6,0.4-8.9c0.5-2.7,1.4-3.1,2.2-3.1
	c4,0,8.7,8.8,8.7,14.6C39.6,31.9,39.4,33.1,38.9,34.1L38.9,34.1z"/>
</svg>
