<?xml version="1.0" encoding="utf-8"?>
<!-- Generator: Adobe Illustrator 21.0.2, SVG Export Plug-In . SVG Version: 6.00 Build 0)  -->
<svg version="1.1" id="Capa_1" xmlns="http://www.w3.org/2000/svg" xmlns:xlink="http://www.w3.org/1999/xlink" x="0px" y="0px"
	 viewBox="0 0 20 20" style="enable-background:new 0 0 20 20;" xml:space="preserve">
<style type="text/css">
	.st0{fill:#004B97;}
</style>
<path class="st0" d="M12.4,11.2h-1.2V10c0-0.2-0.2-0.4-0.4-0.4H9.2C9,9.6,8.8,9.8,8.8,10v1.2H7.6c-0.2,0-0.4,0.2-0.4,0.4v1.6
	c0,0.2,0.2,0.4,0.4,0.4h1.2v1.2c0,0.2,0.2,0.4,0.4,0.4h1.6c0.2,0,0.4-0.2,0.4-0.4v-1.2h1.2c0.2,0,0.4-0.2,0.4-0.4v-1.6
	C12.8,11.4,12.6,11.2,12.4,11.2z M12,12.8h-1.2c-0.2,0-0.4,0.2-0.4,0.4v1.2H9.6v-1.2c0-0.2-0.2-0.4-0.4-0.4H8V12h1.2
	c0.2,0,0.4-0.2,0.4-0.4v-1.2h0.8v1.2c0,0.2,0.2,0.4,0.4,0.4H12V12.8z M14.3,5.2c-0.5,0-0.9-0.4-0.9-0.9V4h1.2C14.8,4,15,3.8,15,3.6
	V0.4C15,0.2,14.8,0,14.6,0H5.4C5.2,0,5,0.2,5,0.4v3.2C5,3.8,5.2,4,5.4,4h1.2v0.2c0,0.5-0.4,0.9-0.9,0.9c-1.6,0-3,1.3-3,3v9.5
	c0,1.3,1,2.4,2.3,2.4h10c1.3,0,2.3-1.1,2.3-2.3V8.1C17.3,6.5,16,5.2,14.3,5.2z M5.8,3.2V0.8h8.5v2.4H5.8L5.8,3.2z M16.5,10.9v6.8
	l0,0c0,0.9-0.7,1.5-1.5,1.5H5c-0.9,0-1.5-0.7-1.5-1.5v-6.8v-0.8v-2c0-1.2,1-2.2,2.2-2.2c0.9,0,1.7-0.8,1.7-1.7V4h5.3v0.2
	c0,0.9,0.8,1.7,1.7,1.7c1.2,0,2.2,1,2.2,2.2v2L16.5,10.9z"/>
</svg>
