<?xml version="1.0" encoding="utf-8"?>
<!-- Generator: Adobe Illustrator 21.0.2, SVG Export Plug-In . SVG Version: 6.00 Build 0)  -->
<svg version="1.1" id="Capa_1" xmlns="http://www.w3.org/2000/svg" xmlns:xlink="http://www.w3.org/1999/xlink" x="0px" y="0px"
	 viewBox="0 0 20 20" style="enable-background:new 0 0 20 20;" xml:space="preserve">
<style type="text/css">
	.st0{fill:#FFFFFF;}
</style>
<title>azulblanco</title>
<path class="st0" d="M13.1,14.8c-1.2,0.8-2.5,1.5-3.9,2c-1-0.4-8.4-3.4-8.4-9.1C0.7,5.2,2.7,3.2,5.2,3.1c1.5,0,2.9,0.8,3.7,2.1
	C8.9,5.3,9,5.3,9.2,5.3l0,0c0.1,0,0.3-0.1,0.3-0.2c0.8-1.3,2.2-2,3.7-2.1c2.5,0.1,4.5,2.1,4.4,4.7c0,0.6-0.1,1.2-0.2,1.7
	c-0.1,0.2,0.1,0.4,0.3,0.5c0.2,0.1,0.4-0.1,0.5-0.3c0,0,0,0,0,0c0.2-0.6,0.2-1.3,0.2-1.9c0.1-2.9-2.2-5.4-5.2-5.4c-1.6,0-3,0.7-4,2
	c-1-1.2-2.4-2-4-2C2.2,2.4-0.1,4.8,0,7.7c0,6.8,8.7,9.8,9,9.9h0.1h0.1c1.5-0.6,2.9-1.3,4.3-2.2c0.2-0.1,0.2-0.4,0.1-0.6
	C13.5,14.8,13.3,14.7,13.1,14.8C13.1,14.8,13.1,14.8,13.1,14.8z M19.6,12.1h-1.9c-0.1,0-0.3,0.1-0.3,0.2l-1.1,2.3l-1.8-6
	c0-0.2-0.2-0.3-0.3-0.3c-0.2,0-0.3,0.1-0.4,0.2l-1.4,3h-1.6c-0.2,0-0.4,0.2-0.4,0.4c0,0.2,0.2,0.4,0.4,0.4h1.9
	c0.1,0,0.3-0.1,0.3-0.2L14,9.8l1.8,6c0,0.2,0.2,0.3,0.3,0.3l0,0c0.1,0,0.3-0.1,0.3-0.2l1.4-3h1.6c0.2,0,0.4-0.2,0.4-0.4
	C20,12.2,19.8,12.1,19.6,12.1L19.6,12.1z"/>
</svg>
