<svg id="Capa_1" data-name="Capa 1" xmlns="http://www.w3.org/2000/svg" viewBox="0 0 140 80"><defs><style>.cls-1{fill:#7bcaea;}.cls-2{fill:#fff;}</style></defs><title>icono</title><circle class="cls-1" cx="70" cy="40" r="39.5"/><g id="_Grupo_" data-name="&lt;Grupo&gt;"><path id="_Trazado_compuesto_" data-name="&lt;Trazado compuesto&gt;" class="cls-2" d="M86.71,31.43c.55,12.13-8.5,25.65-24.5,25.65A24.44,24.44,0,0,1,49,53.21a17.31,17.31,0,0,0,12.77-3.58,8.63,8.63,0,0,1-8.06-6,8.84,8.84,0,0,0,3.91-.14,8.67,8.67,0,0,1-6.93-8.57A8.66,8.66,0,0,0,54.57,36,8.65,8.65,0,0,1,51.9,24.49a24.45,24.45,0,0,0,17.78,9,8.63,8.63,0,0,1,14.69-7.86,17.85,17.85,0,0,0,5.5-2.09,8.77,8.77,0,0,1-3.8,4.77A17.52,17.52,0,0,0,91,27,17.29,17.29,0,0,1,86.71,31.43Z"/></g></svg>