<svg id="Capa_1" data-name="Capa 1" xmlns="http://www.w3.org/2000/svg" viewBox="0 0 80 80"><defs><style>.cls-1{fill:#004b97;}.cls-2{fill:#fff;}</style></defs><title>OFERTAS Y SUCURSALES</title><circle class="cls-1" cx="40" cy="40" r="40"/><path class="cls-2" d="M56.27,39.06a6.46,6.46,0,0,0-.81,12.87,10.14,10.14,0,0,1-20.25-.71h0V46.5A14.7,14.7,0,0,0,49.1,31.84V23.93A5.81,5.81,0,0,0,44,18.17a2.69,2.69,0,1,0,0,1.57,4.25,4.25,0,0,1,3.62,4.19v7.91a13.13,13.13,0,0,1-26.25,0V23.93a4.25,4.25,0,0,1,3.62-4.19,2.69,2.69,0,1,0,0-1.57,5.81,5.81,0,0,0-5.14,5.76v7.91A14.7,14.7,0,0,0,33.65,46.5v4.71A11.7,11.7,0,0,0,57,51.94a6.46,6.46,0,0,0-.75-12.88ZM41.39,20a1.13,1.13,0,1,1,1.13-1.13A1.14,1.14,0,0,1,41.39,20ZM27.46,17.77a1.13,1.13,0,1,1-1.13,1.13A1.14,1.14,0,0,1,27.46,17.77ZM56.28,50.43h0a4.91,4.91,0,1,1,4.92-4.91A4.91,4.91,0,0,1,56.25,50.43Zm0-6.37a1.46,1.46,0,1,0,1.46,1.46A1.46,1.46,0,0,0,56.27,44.07Z"/></svg>