<svg id="Capa_1" data-name="Capa 1" xmlns="http://www.w3.org/2000/svg" viewBox="0 0 80 80"><defs><style>.cls-1{fill:#004b97;}.cls-2{fill:#fff;}</style></defs><title>OFERTAS Y SUCURSALES</title><circle class="cls-1" cx="40" cy="40" r="40"/><path class="cls-2" d="M49.38,24.34c-3.78,0-4.72,4.24-5,6-1.06-.21-1.88-.9-1.88-1.69V23a.82.82,0,1,0-1.64,0v5.64A3.64,3.64,0,0,0,44.09,32q-.1.78-.17,1.63a6,6,0,0,1-3.35-1.67.84.84,0,0,0-1.16,0,6,6,0,0,1-3.35,1.67Q36,32.77,35.91,32a3.64,3.64,0,0,0,3.27-3.31V23a.82.82,0,1,0-1.64,0v5.64c0,.78-.83,1.48-1.88,1.69-.32-1.78-1.26-6-5-6-7.49,0-15.51,14.66-15.51,25,0,3.64.6,8.47,5.81,8.47a12.74,12.74,0,0,0,3.51-.57c3.87-1.11,11.91-3.43,11.91-11.62v-.41c0-3.68,0-7-.15-9.92A7.81,7.81,0,0,0,40,33.62a7.82,7.82,0,0,0,3.82,1.63c-.15,2.89-.15,6.25-.15,9.93v.41c0,8.19,8,10.51,11.91,11.62a12.74,12.74,0,0,0,3.51.57h0a5,5,0,0,0,4.58-2.38,11.86,11.86,0,0,0,1.23-6.09C64.9,39,56.87,24.34,49.38,24.34ZM34.7,45.59c0,6.11-5.16,8.44-10.73,10a11.31,11.31,0,0,1-3.05.51c-2.06,0-4.17-.81-4.17-6.83C16.74,40.1,24.18,26,30.62,26c1.22,0,2.72.56,3.48,5,.6,3.48.6,8.47.6,14.25v.41Zm27.56,9a3.36,3.36,0,0,1-3.18,1.59h0A11.31,11.31,0,0,1,56,55.64C50.46,54,45.3,51.7,45.3,45.59v-.41c0-5.78,0-10.77.6-14.25.76-4.39,2.26-5,3.48-5,6.43,0,13.88,14.12,13.88,23.34A10.4,10.4,0,0,1,62.26,54.55Z"/></svg>