<svg id="Capa_1" data-name="Capa 1" xmlns="http://www.w3.org/2000/svg" viewBox="0 0 80 80"><defs><style>.cls-1{fill:#004b97;}.cls-2{fill:#fff;}</style></defs><title>OFERTAS Y SUCURSALES</title><circle class="cls-1" cx="40" cy="40" r="40"/><path class="cls-2" d="M22.45,46.29c-.74,2.18-.09,4.45,1.83,6.4a9.11,9.11,0,0,0,6.67,2.42c5.67,0,12.38-3.28,17.94-8.78a30.94,30.94,0,0,0,8.35-13.58c1.21-4.58.57-8.55-1.75-10.9a6.17,6.17,0,0,0-6.37-1.9.78.78,0,0,0-.42.33l-4.88,7.88a.78.78,0,0,0-.05.72,7.48,7.48,0,0,0,4.39,4A22,22,0,0,1,43,40.41a21.94,21.94,0,0,1-7.65,5.06A7.49,7.49,0,0,0,31.44,41a.78.78,0,0,0-.72,0l-7.93,4.79A.78.78,0,0,0,22.45,46.29Zm1.4.76,7.31-4.42A5.91,5.91,0,0,1,34,46.58a.78.78,0,0,0,1,.65c.18,0,4.48-1.11,9.13-5.71s5.78-8.88,5.82-9.06a.78.78,0,0,0-.64-1,5.9,5.9,0,0,1-3.91-2.9l4.5-7.26a3.92,3.92,0,0,1,1-.12,5.09,5.09,0,0,1,3.56,1.71c1.92,1.95,2.42,5.38,1.35,9.41a29.38,29.38,0,0,1-7.94,12.87c-5.2,5.14-11.65,8.33-16.85,8.33a7.61,7.61,0,0,1-5.56-2A4.7,4.7,0,0,1,23.85,47.06Z"/></svg>